<?xml version="1.0" standalone="no"?>
<!DOCTYPE svg PUBLIC "-//W3C//DTD SVG 20010904//EN"
 "http://www.w3.org/TR/2001/REC-SVG-20010904/DTD/svg10.dtd">
<svg version="1.0" xmlns="http://www.w3.org/2000/svg"
 width="596.000000pt" height="596.000000pt" viewBox="0 0 596.000000 596.000000"
 preserveAspectRatio="xMidYMid meet">
<metadata>
Created by potrace 1.14, written by Peter Selinger 2001-2017
</metadata>
<g transform="translate(0.000000,596.000000) scale(0.100000,-0.100000)"
fill="#000000" stroke="none">
<path d="M1859 5956 c-2 -3 -34 -7 -72 -10 -117 -11 -374 -71 -452 -106 -68
-30 -119 -50 -129 -50 -7 0 -18 -6 -24 -12 -7 -7 -16 -13 -20 -14 -13 -1 -67
-29 -73 -37 -3 -5 -10 -8 -15 -8 -8 1 -203 -116 -214 -128 -3 -4 -23 -19 -45
-35 -134 -99 -293 -259 -394 -396 -22 -30 -44 -59 -48 -65 -17 -21 -103 -163
-103 -171 0 -4 -6 -15 -14 -23 -20 -23 -93 -191 -126 -290 -34 -102 -77 -268
-85 -331 -3 -25 -9 -67 -13 -95 -9 -64 -9 -383 1 -455 10 -79 24 -158 37 -215
6 -27 13 -57 15 -65 14 -70 83 -254 127 -345 114 -231 251 -422 411 -574 39
-36 79 -75 91 -86 31 -30 187 -146 214 -158 12 -6 23 -17 23 -26 3 -37 8 -77
12 -97 3 -12 8 -45 12 -74 4 -29 9 -62 11 -74 3 -12 7 -30 9 -41 3 -11 14 -54
25 -95 11 -41 23 -86 26 -100 2 -14 7 -32 11 -40 3 -8 7 -20 8 -25 2 -6 23
-62 48 -125 84 -215 199 -418 351 -620 82 -109 313 -346 401 -411 33 -24 62
-47 65 -50 22 -27 308 -209 328 -209 6 0 17 -6 24 -13 44 -43 460 -199 591
-221 15 -3 37 -8 48 -11 22 -7 55 -13 104 -20 17 -2 30 -4 30 -5 0 -1 16 -3
35 -5 19 -2 49 -6 65 -10 62 -14 448 -14 559 0 205 26 421 74 521 115 11 4 61
23 110 41 97 36 328 147 333 161 2 4 9 8 15 8 23 0 256 162 368 256 48 40 309
305 309 313 0 4 14 23 31 42 56 62 197 282 262 409 79 155 175 402 191 490 3
14 5 25 6 25 2 0 9 34 14 67 3 15 7 31 9 35 6 10 19 80 32 173 3 25 9 65 12
90 10 65 9 454 -1 525 -4 33 -9 74 -11 90 -2 17 -5 41 -8 55 -3 14 -8 43 -12
65 -7 39 -40 170 -69 270 -54 192 -220 531 -340 691 -17 23 -40 54 -51 70 -11
15 -24 32 -30 38 -5 6 -23 29 -40 51 -57 76 -288 301 -380 370 -22 16 -49 37
-59 47 -11 10 -23 18 -26 18 -4 0 -20 11 -36 25 -16 14 -33 25 -37 25 -4 0
-13 5 -20 10 -45 40 -359 207 -392 210 -5 1 -20 8 -32 16 -13 8 -23 12 -23 8
0 -4 -6 -2 -12 4 -26 21 -332 111 -428 126 -19 3 -44 7 -55 10 -11 2 -43 7
-72 11 -50 6 -52 8 -99 78 -123 188 -278 355 -447 485 -76 60 -222 156 -258
172 -13 5 -31 14 -39 20 -50 33 -311 139 -382 155 -13 2 -59 14 -103 25 -44
11 -100 22 -125 25 -25 3 -61 8 -80 11 -43 6 -396 15 -401 10z"/>
</g>
</svg>
