<?xml version="1.0" encoding="utf-8"?><svg xmlns="http://www.w3.org/2000/svg" xmlns:xlink="http://www.w3.org/1999/xlink"><style>:root>svg{display:none}:root>svg:target{display:block}</style><svg viewBox="0 0 25 25" fill="none" id="css-logo" xmlns="http://www.w3.org/2000/svg"><path d="m1.563 0 2.003 22.5 8.997 2.5 8.993-2.498L23.562 0h-22Z" fill="#2196F3"/><path d="M19.326 7.247 19.07 9.96l-.767 8.134-5.729 1.505-.005.001-5.725-1.506-.4-4.253h2.806l.208 2.206 3.113.798.002-.002 3.117-.798.425-3.676-9.805.026-.278-2.514 10.319-.116.208-2.69-10.803.028L5.575 4.6h14l-.25 2.647Z" fill="#FAFAFA"/></svg><svg viewBox="0 0 25 17" id="email" xmlns="http://www.w3.org/2000/svg"><path d="M21.946.014H3.054A3.057 3.057 0 0 0 0 3.068v10.864a3.057 3.057 0 0 0 3.054 3.054h18.892A3.057 3.057 0 0 0 25 13.932V3.068A3.057 3.057 0 0 0 21.946.014Zm-1.492 1.992L12.5 7.131 4.546 2.006h15.908Zm1.492 12.988H3.054a1.063 1.063 0 0 1-1.062-1.061V3.124l9.893 6.362.042.022a1.147 1.147 0 0 0 .28.115l.024.005c.089.021.179.034.268.034h.002c.09 0 .18-.013.268-.034l.025-.005a1.154 1.154 0 0 0 .28-.115l.041-.022 9.894-6.362v10.808c0 .586-.477 1.062-1.063 1.062Z"/></svg><svg viewBox="0 0 25 25" fill="none" id="figma-logo" xmlns="http://www.w3.org/2000/svg"><path d="M8.333 25c2.3 0 4.167-1.867 4.167-4.167v-4.166H8.333a4.168 4.168 0 0 0-4.167 4.166c0 2.3 1.867 4.167 4.167 4.167Z" fill="#0ACF83"/><path d="M4.167 12.5c0-2.3 1.866-4.167 4.166-4.167H12.5v8.334H8.333A4.168 4.168 0 0 1 4.166 12.5Z" fill="#A259FF"/><path d="M4.167 4.167C4.167 1.867 6.033 0 8.332 0H12.5v8.333H8.333a4.168 4.168 0 0 1-4.167-4.166Z" fill="#F24E1E"/><path d="M12.5 0h4.167c2.3 0 4.166 1.867 4.166 4.167s-1.866 4.166-4.166 4.166H12.5V0Z" fill="#FF7262"/><path d="M20.833 12.5c0 2.3-1.866 4.167-4.166 4.167A4.168 4.168 0 0 1 12.5 12.5c0-2.3 1.867-4.167 4.167-4.167s4.166 1.867 4.166 4.167Z" fill="#1ABCFE"/></svg><svg viewBox="0 0 512 512" id="gas-logo" xmlns="http://www.w3.org/2000/svg"><rect fill="#ea4335" x="27.53" y="328.9" width="373" height="107" rx="53.5"/><rect fill="#fbbc04" x="53.33" y="250.94" width="373" height="107" rx="53.5" transform="rotate(-144 239.832 304.447)"/><rect fill="#34a853" x="120.53" y="201.9" width="373" height="107" rx="53.5" transform="rotate(72 307.032 255.396)"/><rect fill="#4285f4" x="202.53" y="201.9" width="373" height="107" rx="53.5" transform="rotate(-72 389.029 255.392)"/><g fill="#fff"><circle cx="265.84" cy="129.28" r="26.7"/><circle cx="131.44" cy="225.44" r="26.7"/><circle cx="81.36" cy="382.6" r="26.7"/><circle cx="348.22" cy="381.64" r="26.7"/><circle cx="430.67" cy="127.89" r="26.7"/></g></svg><svg viewBox="0 0 25 25" fill="none" id="git-logo" xmlns="http://www.w3.org/2000/svg"><path d="M23.145 11.582 13.54 1.977a1.414 1.414 0 0 0-2.004 0L9.543 3.972l2.53 2.53a1.682 1.682 0 0 1 2.13 2.145l2.435 2.435a1.683 1.683 0 1 1-1.01.95l-2.274-2.274v5.984a1.682 1.682 0 1 1-1.385-.048v-6.04a1.685 1.685 0 0 1-.915-2.21l-2.49-2.492-6.587 6.588a1.414 1.414 0 0 0 0 2.004l9.604 9.601a1.416 1.416 0 0 0 2.004 0l9.56-9.562a1.412 1.412 0 0 0 0-2.004" fill="#DD4C35"/><path d="m9.475 3.959 2.455 2.536c.289-.102.6-.117.898-.045.298.072.57.229.785.453.216.224.366.507.434.815.068.308.05.63-.05.928l2.363 2.442a1.584 1.584 0 0 1 1.088.01c.351.131.648.383.841.714a1.734 1.734 0 0 1-.278 2.101 1.594 1.594 0 0 1-2.047.161 1.686 1.686 0 0 1-.64-.91 1.741 1.741 0 0 1 .056-1.123l-2.206-2.28v6c.334.17.601.455.758.806.156.35.19.744.1 1.118a1.69 1.69 0 0 1-.603.936c-.298.231-.664.35-1.037.337a1.603 1.603 0 0 1-1.012-.412 1.7 1.7 0 0 1-.537-.976c-.066-.38-.004-.771.175-1.11.18-.337.466-.602.811-.748V9.656c-.2-.084-.381-.209-.534-.366a1.697 1.697 0 0 1-.357-.55 1.741 1.741 0 0 1 .003-1.3l-2.417-2.5" fill="#fff"/></svg><svg viewBox="0 0 25 25" id="github" xmlns="http://www.w3.org/2000/svg"><path fill-rule="evenodd" clip-rule="evenodd" d="M12.499 0C5.596 0 0 5.738 0 12.817c0 5.662 3.581 10.466 8.549 12.161.625.117.853-.278.853-.619 0-.303-.01-1.11-.017-2.179-3.477.775-4.21-1.718-4.21-1.718-.57-1.48-1.389-1.874-1.389-1.874-1.135-.796.086-.78.086-.78 1.255.091 1.915 1.321 1.915 1.321 1.115 1.958 2.926 1.393 3.638 1.065.114-.828.435-1.393.793-1.713-2.775-.324-5.694-1.424-5.694-6.334 0-1.4.488-2.544 1.287-3.44-.128-.324-.557-1.627.122-3.392 0 0 1.05-.344 3.438 1.315a11.692 11.692 0 0 1 3.13-.432 11.71 11.71 0 0 1 3.129.432c2.386-1.659 3.434-1.315 3.434-1.315.682 1.765.253 3.068.124 3.392.801.896 1.286 2.04 1.286 3.44 0 4.923-2.924 6.006-5.709 6.324.45.395.85 1.177.85 2.373 0 1.713-.016 3.096-.016 3.515 0 .344.225.743.86.617C21.422 23.278 25 18.478 25 12.817 25 5.737 19.403 0 12.499 0"/></svg><svg viewBox="0 0 25 25" fill="none" id="gulp-logo" xmlns="http://www.w3.org/2000/svg"><path d="M12.515 18.8a12.31 12.31 0 0 1-2.782-.306 5.402 5.402 0 0 1-.796-.242l.643 1.083.252 3.384c0 .38 1.222.687 2.73.687 1.507 0 2.73-.307 2.73-.687l.2-3.42.607-1.05c-.26.103-.529.185-.802.245a12.31 12.31 0 0 1-2.782.307ZM16.12 7.79c-1.18.145-2.37.213-3.559.203-1.19.01-2.378-.058-3.559-.203a6.75 6.75 0 0 1-1.107-.228 1.62 1.62 0 0 1-.273-.111l.59 5.35a5.196 5.196 0 0 1 .329-.827c.088-.175.187-.345.297-.51.103-.154.217-.301.341-.44.113-.127.237-.243.372-.348a1.78 1.78 0 0 1 .385-.226.988.988 0 0 1 .385-.078.84.84 0 0 1 .426.118c.156.098.287.229.384.384a.304.304 0 0 1 .052.12c.007.038.011.076.011.114a.302.302 0 0 1-.061.201.183.183 0 0 1-.147.073.19.19 0 0 1-.144-.078 1.529 1.529 0 0 1-.148-.23.558.558 0 0 0-.17-.196.362.362 0 0 0-.202-.06.629.629 0 0 0-.361.138c-.142.105-.27.228-.38.365a4.002 4.002 0 0 0-.362.519 5.38 5.38 0 0 0-.306.598 4.23 4.23 0 0 0-.21.604c-.05.174-.076.353-.08.534 0 .054.004.108.011.162.007.052.02.103.041.151.018.043.045.081.08.112.036.03.083.045.13.043a.45.45 0 0 0 .204-.059c.084-.044.163-.097.237-.156a3.646 3.646 0 0 0 .663-.702c.047-.062.088-.129.123-.198l.225-.663a.312.312 0 0 1 .108-.156.24.24 0 0 1 .136-.045c.023 0 .046.003.068.01a.165.165 0 0 1 .103.098.232.232 0 0 1 .015.089c0 .085-.008.17-.024.254-.016.08-.037.157-.062.234a3.691 3.691 0 0 1-.083.227c-.03.076-.06.155-.09.238a.529.529 0 0 0-.034.09l-.062.187-.079.253-.087.285c-.03.096-.058.191-.085.284l-.074.253-.054.189-.027.09a.654.654 0 0 1-.101.204.38.38 0 0 1-.08.078.149.149 0 0 1-.089.033.128.128 0 0 1-.112-.05.35.35 0 0 1-.035-.187v-.04a.4.4 0 0 1 0-.042.99.99 0 0 1 .046-.17c.022-.082.049-.175.079-.28.03-.104.064-.212.101-.324l.098-.3a4.77 4.77 0 0 1-.277.28c-.097.09-.2.175-.307.251-.1.071-.205.132-.317.182a.758.758 0 0 1-.307.07.556.556 0 0 1-.333-.102l.329 3.394c.085.211 1.694.73 3.816.73s3.732-.52 3.816-.731l.474-4.035-.113.103c-.122.113-.25.22-.383.32a1.729 1.729 0 0 1-.35.207.922.922 0 0 1-.368.074.45.45 0 0 1-.284-.078.263.263 0 0 1-.1-.217v-.021a.14.14 0 0 1 0-.024.508.508 0 0 1 .075-.195c.048-.08.1-.156.158-.229.061-.079.127-.159.196-.24.069-.08.133-.158.192-.23.052-.063.101-.13.146-.199a.296.296 0 0 0 .058-.146.066.066 0 0 0-.025-.054.127.127 0 0 0-.079-.02.458.458 0 0 0-.2.05.99.99 0 0 0-.202.132c-.07.059-.136.122-.196.19a2.809 2.809 0 0 0-.33.457 3.669 3.669 0 0 0-.117.216l-.041.088c-.018.037-.038.08-.058.127-.02.047-.043.095-.067.145-.023.052-.044.099-.064.14l-.052.12a1.878 1.878 0 0 0-.072.168l-.064.164-.079.2-.075.197-.062.163c-.017.047-.03.078-.034.096a1.03 1.03 0 0 1-.057.138.568.568 0 0 1-.075.115.342.342 0 0 1-.096.078.25.25 0 0 1-.122.03.24.24 0 0 1-.144-.041.183.183 0 0 1-.057-.156c0-.039.005-.078.014-.115a1.741 1.741 0 0 1 .082-.23c.015-.036.029-.072.041-.107.087-.188.176-.376.266-.565.09-.189.177-.376.26-.561l.05-.115-.015.015c-.1.094-.206.182-.317.263-.096.072-.2.133-.31.182a.738.738 0 0 1-.297.068.392.392 0 0 1-.166-.031.276.276 0 0 1-.106-.085.335.335 0 0 1-.056-.127c0-.016-.007-.034-.01-.051a1.738 1.738 0 0 1-.38.23.66.66 0 0 1-.26.064.25.25 0 0 1-.189-.078.372.372 0 0 1-.072-.26c.002-.101.015-.202.039-.301a1.538 1.538 0 0 1-.373.428 1.08 1.08 0 0 1-.27.15.898.898 0 0 1-.327.059.588.588 0 0 1-.153-.02.324.324 0 0 1-.218-.196.522.522 0 0 1-.034-.202s0-.03.01-.086a1.8 1.8 0 0 1 .06-.262 7.023 7.023 0 0 1 .465-1.159.38.38 0 0 1 .118-.156.246.246 0 0 1 .282-.005c.02.014.038.032.05.054.014.023.021.05.02.078a.192.192 0 0 1-.007.053.643.643 0 0 1-.053.126 8.439 8.439 0 0 1-.093.178 8.844 8.844 0 0 0-.112.216c-.04.077-.076.156-.11.239a2.377 2.377 0 0 0-.087.253 1.082 1.082 0 0 0-.041.25c0 .032.008.064.024.092a.084.084 0 0 0 .08.042.509.509 0 0 0 .3-.101c.098-.072.187-.157.262-.253.082-.102.155-.21.219-.324.065-.116.12-.222.163-.318.03-.066.057-.135.079-.206.023-.069.049-.136.079-.202a.621.621 0 0 1 .094-.156.168.168 0 0 1 .133-.063.166.166 0 0 1 .137.065c.035.045.053.1.051.156a.436.436 0 0 1-.032.14 5.58 5.58 0 0 1-.187.446 4.771 4.771 0 0 0-.107.264 2.58 2.58 0 0 0-.08.262.967.967 0 0 0-.032.239.09.09 0 0 0 .064.098.093.093 0 0 0 .042.003.469.469 0 0 0 .186-.05 1.273 1.273 0 0 0 .294-.191c.02-.087.047-.172.08-.255a35.5 35.5 0 0 1 .17-.437l.159-.398.732-1.82a.305.305 0 0 1 .117-.155.283.283 0 0 1 .148-.046c.05 0 .098.017.136.048a.185.185 0 0 1 .062.156.313.313 0 0 1-.02.107 1.278 1.278 0 0 1-.053.122 26.282 26.282 0 0 0-.322.741c-.064.15-.13.306-.196.468l-.195.475-.179.438-.144.36c-.02.05-.037.1-.052.15a.551.551 0 0 0-.025.157.136.136 0 0 0 .014.068.059.059 0 0 0 .055.026.32.32 0 0 0 .127-.036c.057-.027.112-.058.164-.093.06-.038.12-.082.184-.132a6.082 6.082 0 0 0 .523-.465.107.107 0 0 1 .037-.024c.027-.078.053-.156.074-.234l.053-.144a1.95 1.95 0 0 1 .08-.184.783.783 0 0 1 .097-.155.152.152 0 0 1 .118-.06.194.194 0 0 1 .14.043.177.177 0 0 1 .043.129.463.463 0 0 1-.004.054c0 .024-.007.05-.012.078l-.016.078a.36.36 0 0 1-.016.053c.06-.063.124-.127.193-.19a1.97 1.97 0 0 1 .215-.17c.071-.05.148-.091.227-.125a.569.569 0 0 1 .39-.025c.05.014.098.037.14.067.041.029.076.066.1.11.028.047.041.101.04.156a.6.6 0 0 1-.06.247c-.042.092-.092.18-.149.263-.06.089-.123.175-.192.258a9.03 9.03 0 0 1-.195.229l-.153.175a.261.261 0 0 0-.064.097c0 .02.008.04.022.056.02.016.047.023.073.02a.279.279 0 0 0 .121-.045c.078-.047.152-.099.223-.156.096-.074.218-.174.365-.298l.352-.304.64-5.833a1.615 1.615 0 0 1-.273.111 6.75 6.75 0 0 1-1.11.222Zm-3.559-1.383c-2.762 0-5 .304-5 .68 0 .376 2.232.679 5 .679s5-.304 5-.68c0-.376-2.241-.679-5-.679Zm1.996.88c0 .087-.266.155-.594.155-.328 0-.594-.072-.594-.156s.266-.156.594-.156c.329 0 .592.066.592.155l.002.001Z" fill="#DA4648"/><path d="M13.414 7.445a.029.029 0 0 0-.005.014c0 .06.21.108.466.108s.466-.048.466-.108l.614-2.602 2.441-2.697c.051-.061-.053-.25-.227-.413-.174-.163-.362-.217-.42-.155l-2.596 2.864-.74 2.989Z" fill="#DA4648"/></svg><svg viewBox="0 0 25 25" fill="none" id="html-logo" xmlns="http://www.w3.org/2000/svg"><path d="m1.563 0 2.003 22.5 8.997 2.5 8.993-2.498L23.562 0h-22Z" fill="#FF5722"/><path d="M19.389 7.247H8.693l.255 2.713h10.186l-.767 8.134-5.729 1.505-.004.001-5.726-1.506-.4-4.254h2.805l.21 2.207 3.112.796.004-.001 3.116-.796.325-3.436H6.393L5.638 4.6h14l-.249 2.647Z" fill="#FAFAFA"/></svg><svg viewBox="0 0 25 25" fill="none" id="javascript-logo" xmlns="http://www.w3.org/2000/svg"><g clip-path="url(#iclip0_301_48)"><path d="M26.563 1.563h-25v25h25v-25Z" fill="#FFD047"/><path d="M16.617 18.475c.194.37.495.68.87.895.373.216.804.328 1.243.324.886 0 1.453-.415 1.453-.99 0-.686-.582-.931-1.558-1.331l-.534-.215c-1.545-.617-2.569-1.389-2.569-3.02 0-1.504 1.22-2.65 3.132-2.65a3.334 3.334 0 0 1 1.778.374c.541.286.98.714 1.263 1.232l-1.672 1.002a1.384 1.384 0 0 0-.543-.63 1.525 1.525 0 0 0-.83-.23.988.988 0 0 0-.713.22.88.88 0 0 0-.227.29.826.826 0 0 0-.083.35c0 .601.398.845 1.315 1.22l.535.214c1.817.731 2.845 1.475 2.845 3.15 0 1.804-1.513 2.793-3.544 2.793a4.333 4.333 0 0 1-2.272-.485 3.98 3.98 0 0 1-1.625-1.565l1.736-.948Zm-7.554.174c.335.558.64 1.03 1.376 1.03.702 0 1.146-.257 1.146-1.259v-6.817h2.138v6.844c0 2.076-1.3 3.02-3.193 3.02a3.495 3.495 0 0 1-1.906-.448 3.187 3.187 0 0 1-1.302-1.38l1.74-.99Z" fill="#2D3845"/></g><defs><clipPath id="iclip0_301_48"><path fill="#fff" d="M0 0h25v25H0z"/></clipPath></defs></svg><svg viewBox="0 0 256 289" preserveAspectRatio="xMidYMid" id="nodejs-logo" xmlns="http://www.w3.org/2000/svg"><path d="M128 288.464c-3.975 0-7.685-1.06-11.13-2.915l-35.247-20.936c-5.3-2.915-2.65-3.975-1.06-4.505 7.155-2.385 8.48-2.915 15.9-7.156.796-.53 1.856-.265 2.65.265l27.032 16.166c1.06.53 2.385.53 3.18 0l105.74-61.217c1.06-.53 1.59-1.59 1.59-2.915V83.08c0-1.325-.53-2.385-1.59-2.915l-105.74-60.953c-1.06-.53-2.385-.53-3.18 0L20.405 80.166c-1.06.53-1.59 1.855-1.59 2.915v122.17c0 1.06.53 2.385 1.59 2.915l28.887 16.695c15.636 7.95 25.44-1.325 25.44-10.6V93.68c0-1.59 1.326-3.18 3.181-3.18h13.516c1.59 0 3.18 1.325 3.18 3.18v120.58c0 20.936-11.396 33.126-31.272 33.126-6.095 0-10.865 0-24.38-6.625l-27.827-15.9C4.24 220.885 0 213.465 0 205.515V83.346C0 75.396 4.24 67.976 11.13 64L116.87 2.783c6.625-3.71 15.635-3.71 22.26 0L244.87 64C251.76 67.975 256 75.395 256 83.346v122.17c0 7.95-4.24 15.37-11.13 19.345L139.13 286.08c-3.445 1.59-7.42 2.385-11.13 2.385Zm32.596-84.009c-46.377 0-55.917-21.2-55.917-39.221 0-1.59 1.325-3.18 3.18-3.18h13.78c1.59 0 2.916 1.06 2.916 2.65 2.12 14.045 8.215 20.936 36.306 20.936 22.261 0 31.802-5.035 31.802-16.96 0-6.891-2.65-11.926-37.367-15.372-28.886-2.915-46.907-9.275-46.907-32.33 0-21.467 18.02-34.187 48.232-34.187 33.921 0 50.617 11.66 52.737 37.101 0 .795-.265 1.59-.795 2.385-.53.53-1.325 1.06-2.12 1.06h-13.78c-1.326 0-2.65-1.06-2.916-2.385-3.18-14.575-11.395-19.345-33.126-19.345-24.38 0-27.296 8.48-27.296 14.84 0 7.686 3.445 10.07 36.306 14.31 32.597 4.24 47.967 10.336 47.967 33.127-.265 23.321-19.345 36.571-53.002 36.571Z" fill="#539E43"/></svg><svg viewBox="0 0 25 25" fill="none" id="photoshop-logo" xmlns="http://www.w3.org/2000/svg"><path d="M2.474 2.748h20.052v19.504H2.474V2.748Z" fill="#0C0824"/><path d="M2.474 2.748h20.052v19.504H2.474V2.748Zm-.912 20.416h21.875V1.836H1.563v21.328ZM16.31 10.586c-.72 0-.966.365-.966.666 0 .328.164.556 1.13 1.057 1.431.693 1.875 1.357 1.875 2.333 0 1.459-1.111 2.242-2.615 2.242a3.966 3.966 0 0 1-1.87-.39c-.063-.028-.072-.073-.072-.146v-1.342c0-.091.046-.119.11-.072a3.383 3.383 0 0 0 1.832.537c.72 0 1.02-.3 1.02-.71 0-.329-.209-.62-1.13-1.095-1.294-.62-1.832-1.25-1.832-2.296 0-1.176.92-2.151 2.516-2.151a4.192 4.192 0 0 1 1.631.255.202.202 0 0 1 .091.182v1.25c0 .073-.045.119-.136.092a3.078 3.078 0 0 0-1.586-.41l.002-.002ZM8.471 11.67c.21.018.374.018.738.018 1.067 0 2.07-.373 2.07-1.822 0-1.158-.721-1.741-1.933-1.741-.365 0-.71.018-.875.027v3.518ZM6.848 6.827c0-.064.128-.11.201-.11.584-.027 1.45-.045 2.352-.045 2.525 0 3.51 1.385 3.51 3.154 0 2.315-1.678 3.308-3.738 3.308-.346 0-.464-.018-.71-.018v3.5c0 .073-.028.11-.11.11H6.96c-.073 0-.11-.028-.11-.11V6.827Z" fill="#31C5F0"/></svg><svg viewBox="0 0 25 25" fill="none" id="pug-logo" xmlns="http://www.w3.org/2000/svg"><g clip-path="url(#lclip0_318_87)"><path d="M24.65 11.593c-.004.003-.823.584-.823 1.303 0 1.167-.894 2.817-2.328 3.086-.518 1.314-1.44 1.701-1.618 2.238-.169.507-.704 1.277-3.39 2.11-1.456.452-3.097.768-3.99.768-.894 0-2.535-.316-3.991-.768-2.686-.833-3.221-1.603-3.39-2.11-.178-.536-1.1-.925-1.619-2.238-1.433-.27-2.327-1.92-2.327-3.086 0-.719-.82-1.3-.827-1.306a.766.766 0 0 1-.285-.947C.685 9.146 2.38 5.56 3.95 4.777c1.108-.555 2.606-.478 3.742-.292 2.105-.76 7.455-.782 9.619 0 1.136-.186 2.634-.262 3.741.292 1.565.781 3.272 4.386 3.887 5.866a.771.771 0 0 1-.287.95Z" fill="#A07765"/><path d="M21.874 13.677c0 3.305-1.744 3.796-1.993 4.543-.169.507-.704 1.277-3.39 2.11-1.456.452-3.097.768-3.99.768-.894 0-2.535-.316-3.991-.768-2.686-.833-3.221-1.603-3.39-2.11-.254-.762-1.993-1.21-1.993-4.543 0-3.349 2.441-7.904 3.863-8.852 1.313-.872 4.328-.912 5.901-.912 1.345 0 3.993.16 5.12.912 1.432.955 3.863 5.516 3.863 8.852Z" fill="#FFDFBA"/><path d="M21.683 11.895c-.371 1.664-1.613 2.243-1.802 2.81-.169.507-.704 1.277-3.39 2.11-1.456.452-3.097.768-3.99.768-.894 0-2.535-.316-3.991-.768-2.686-.833-3.221-1.603-3.39-2.11-.191-.575-1.431-1.148-1.802-2.81.566-2.815 2.394-6.218 3.672-7.07 1.914-1.272 9.238-1.189 11.02 0 1.284.855 3.108 4.262 3.673 7.07Z" fill="#FFEBD2"/><path d="M17.12 19.857a.78.78 0 0 1-.476.425c-1.478.473-3.22.816-4.144.816-.923 0-2.666-.343-4.143-.816a.78.78 0 0 1-.476-.425c-.919-1.787-2.061-4.9-.62-6.342 1.071-1.073 1.965-2.321 3.573-2.54.45-.06.859.275.885.732.036.122.345.408.781.408.436 0 .746-.286.782-.408a.782.782 0 0 1 .885-.731c1.604.217 2.493 1.457 3.572 2.54 1.439 1.438.296 4.561-.62 6.34Z" fill="#A07765"/><path d="M14.844 11.724c0 1.07-1.16 1.953-2.343 1.953-1.2 0-2.344-.896-2.344-1.953 0-.755.616-1.562 2.344-1.562 1.727 0 2.343.807 2.343 1.562Z" fill="#999"/><path d="M7.228 9.771a1.367 1.367 0 1 0-.002 2.734 1.367 1.367 0 0 0 .002-2.734ZM17.772 12.505a1.367 1.367 0 1 0 .002-2.734 1.367 1.367 0 0 0-.002 2.734Z" fill="#000"/><path d="M24.938 10.643c-.623-1.498-2.316-5.081-3.887-5.867-1.082-.54-2.548-.486-3.742-.292-2.149-.776-7.504-.764-9.619 0-1.194-.194-2.66-.248-3.742.292C2.384 5.56.678 9.16.061 10.643a.77.77 0 0 0 .288.95c.005.003.824.584.824 1.303 0 1.167.894 2.817 2.327 3.086.519 1.312 1.44 1.703 1.619 2.238.169.507.704 1.277 3.39 2.11 2.583.802 4.087.768 3.99.768 1.1 0 2.902-.43 3.992-.768 2.686-.833 3.22-1.603 3.39-2.11.178-.535 1.1-.925 1.619-2.238 1.432-.27 2.327-1.92 2.327-3.086 0-.719.819-1.3.823-1.303a.771.771 0 0 0 .288-.95ZM2.736 12.896c0-.978-.564-1.73-1.005-2.17.459-1.016 1.923-4.055 2.917-4.552.317-.159.761-.246 1.294-.261-1.433 1.941-2.887 5.384-2.812 8.032-.24-.337-.394-.766-.394-1.05Zm10.475-1.08c-.358.396-1.063.397-1.423 0 .364-.123 1.059-.123 1.423 0ZM9.143 18.89c-.736-1.505-1.372-3.676-.777-4.27.822-.822 1.41-1.592 2.125-1.93.298.41.745.71 1.227.865v1.004c-.948.25-1.75.986-2.213 1.805a.776.776 0 0 0-.136.438c0 .82 1.114 1.086 1.48.346.007.003.006.002.003.007l.003-.005c.005.003.58-1.13 1.645-1.13 1.048 0 1.64 1.124 1.646 1.135l-.002-.004.003.004c-.003-.006-.003-.004.002-.007.368.74 1.481.474 1.481-.346a.777.777 0 0 0-.135-.438c-.47-.829-1.27-1.556-2.214-1.806v-1.003a2.44 2.44 0 0 0 1.227-.865c.715.338 1.303 1.107 2.126 1.93.594.594-.041 2.765-.777 4.27-1.415.424-2.758.645-3.357.645-.6 0-1.942-.221-3.357-.645Zm12.726-4.945c.076-2.67-1.4-6.12-2.812-8.032.533.015.978.102 1.295.26.994.498 2.458 3.537 2.917 4.554-.441.439-1.005 1.191-1.005 2.169 0 .283-.154.712-.395 1.05ZM16.86 5.983c.038.02.077.037.118.051.965.453 3.333 4.653 3.333 7.643 0 2.856-1.38 2.489-1.907 4.032-.045.069-.2.207-.526.388.529-1.476.97-3.473-.139-4.582-.948-.948-1.753-2.039-3.056-2.428-.575-1.054-2.348-.925-2.183-.925-.826 0-1.786.196-2.183.925-1.303.389-2.109 1.48-3.057 2.428-1.108 1.108-.667 3.106-.138 4.582-.327-.181-.482-.32-.526-.388-.527-1.541-1.907-1.178-1.907-4.032 0-3.01 2.38-7.195 3.333-7.643a.78.78 0 0 0 .117-.05c1.728-.686 7.014-.678 8.721 0Z" fill="#000"/></g><defs><clipPath id="lclip0_318_87"><path fill="#fff" d="M0 0h25v25H0z"/></clipPath></defs></svg><svg viewBox="0 0 25 25" fill="none" id="react-logo" xmlns="http://www.w3.org/2000/svg"><path d="M20.555 8.498c-.26-.088-.528-.172-.805-.251.046-.184.087-.365.125-.543.609-2.925.21-5.281-1.15-6.057-1.304-.744-3.437.032-5.59 1.886-.208.178-.416.367-.623.565-.139-.13-.277-.257-.415-.378C9.84 1.737 7.577.9 6.218 1.68c-1.303.746-1.689 2.96-1.14 5.733.053.267.114.54.184.819-.32.09-.629.185-.925.287C1.69 9.432 0 10.863 0 12.346c0 1.533 1.815 3.07 4.571 4.002.218.073.444.143.676.209-.075.3-.14.595-.196.883-.523 2.723-.114 4.886 1.185 5.627 1.342.766 3.595-.02 5.788-1.917.174-.15.348-.31.522-.476.226.215.452.419.676.61 2.125 1.808 4.223 2.539 5.521 1.795 1.341-.768 1.777-3.09 1.211-5.918a13.926 13.926 0 0 0-.15-.66c.159-.047.314-.095.465-.144 2.866-.94 4.731-2.458 4.731-4.01 0-1.49-1.745-2.93-4.445-3.85Zm-.622 6.856a13.99 13.99 0 0 1-.42.13 24.614 24.614 0 0 0-1.266-3.133c.5-1.062.91-2.102 1.217-3.086.256.073.504.15.743.232 2.314.787 3.725 1.952 3.725 2.85 0 .955-1.524 2.196-3.999 3.007Zm-1.026 2.012c.25 1.25.285 2.38.12 3.264-.15.794-.449 1.323-.819 1.535-.788.451-2.472-.135-4.29-1.682a15.234 15.234 0 0 1-.628-.567 24.864 24.864 0 0 0 2.095-2.631c1.209-.107 2.35-.28 3.386-.517.051.204.097.403.136.598ZM8.523 22.087c-.77.269-1.383.277-1.753.065-.789-.45-1.117-2.186-.67-4.515.052-.267.113-.541.183-.821 1.024.224 2.157.385 3.369.482a25.761 25.761 0 0 0 2.146 2.622c-.16.153-.318.298-.476.434-.97.839-1.942 1.434-2.799 1.733Zm-3.606-6.739c-1.22-.412-2.226-.947-2.916-1.532-.62-.525-.933-1.046-.933-1.47 0-.9 1.357-2.049 3.62-2.83.275-.094.563-.183.861-.267a25.157 25.157 0 0 0 1.219 3.123 25.563 25.563 0 0 0-1.234 3.167c-.213-.06-.419-.124-.617-.19ZM6.126 7.21c-.47-2.375-.158-4.167.627-4.616.836-.48 2.686.204 4.635 1.916.125.109.25.223.375.342a25.353 25.353 0 0 0-2.13 2.607 26.37 26.37 0 0 0-3.335.512 15.336 15.336 0 0 1-.172-.761ZM16.91 9.843a33.56 33.56 0 0 0-.76-1.236c.797.1 1.561.232 2.279.394a22.424 22.424 0 0 1-.8 2.13 36.83 36.83 0 0 0-.72-1.288Zm-4.398-4.236c.492.528.986 1.117 1.471 1.757a31.802 31.802 0 0 0-2.955-.001c.486-.634.984-1.222 1.484-1.756ZM8.086 9.85c-.247.423-.482.85-.706 1.278a23.154 23.154 0 0 1-.794-2.14 24.316 24.316 0 0 1 2.266-.384c-.262.405-.518.82-.766 1.246Zm.79 6.312a22.98 22.98 0 0 1-2.305-.366c.221-.705.493-1.438.81-2.183a31.14 31.14 0 0 0 1.494 2.55Zm3.665 2.997a23.78 23.78 0 0 1-1.504-1.78c.479.018.967.028 1.463.028.51 0 1.013-.011 1.51-.033a22.517 22.517 0 0 1-1.469 1.785Zm5.098-5.584c.334.753.616 1.482.84 2.175-.725.164-1.508.295-2.333.393a36.8 36.8 0 0 0 .768-1.258c.255-.437.496-.874.725-1.31Zm-1.65.782c-.391.67-.792 1.31-1.2 1.914a32.5 32.5 0 0 1-2.289.08c-.778 0-1.535-.024-2.264-.071a29.572 29.572 0 0 1-2.289-3.91 29.633 29.633 0 0 1 2.276-3.902 30.374 30.374 0 0 1 4.557 0c.414.605.818 1.241 1.205 1.904.392.67.752 1.333 1.078 1.984a31.71 31.71 0 0 1-1.074 2.001Zm2.203-11.796c.837.478 1.163 2.404.637 4.929-.034.161-.072.325-.113.491a25.843 25.843 0 0 0-3.342-.522 24.863 24.863 0 0 0-2.114-2.609c.192-.182.384-.357.575-.521 1.846-1.589 3.57-2.216 4.357-1.768ZM12.5 10.138c1.233 0 2.232.989 2.232 2.208 0 1.22-1 2.208-2.232 2.208-1.233 0-2.232-.988-2.232-2.208 0-1.22 1-2.208 2.232-2.208Z" fill="#00D8FF"/></svg><svg viewBox="0 0 25 25" fill="none" id="redux-logo" xmlns="http://www.w3.org/2000/svg"><g clip-path="url(#nclip0_301_83)"><path d="M17.322 17.347c.923-.096 1.623-.9 1.591-1.866a1.796 1.796 0 0 0-1.782-1.737h-.063c-.986.032-1.75.869-1.718 1.866.032.483.223.9.509 1.19-1.082 2.156-2.736 3.732-5.217 5.051-1.687.901-3.436 1.223-5.186.998-1.432-.193-2.545-.837-3.245-1.898-1.018-1.577-1.114-3.282-.255-4.987.605-1.223 1.56-2.123 2.164-2.574a17.514 17.514 0 0 1-.414-1.64C-.907 15.127-.43 19.695.97 21.85c1.05 1.609 3.182 2.606 5.536 2.606.636 0 1.272-.064 1.909-.225 4.072-.804 7.158-3.25 8.907-6.885Zm5.6-3.989c-2.418-2.863-5.981-4.44-10.054-4.44h-.509a1.746 1.746 0 0 0-1.558-.965h-.064c-.986.032-1.75.869-1.718 1.866a1.796 1.796 0 0 0 1.782 1.737h.063a1.793 1.793 0 0 0 1.56-1.093h.572c2.418 0 4.708.707 6.776 2.09 1.59 1.062 2.736 2.446 3.372 4.119.541 1.35.51 2.67-.063 3.796-.891 1.705-2.386 2.638-4.359 2.638-1.272 0-2.481-.386-3.118-.676-.35.322-.986.837-1.431 1.159 1.368.643 2.768.997 4.104.997 3.054 0 5.313-1.705 6.172-3.41.922-1.866.859-5.083-1.527-7.818ZM6.76 17.894a1.796 1.796 0 0 0 1.782 1.738h.063c.987-.033 1.75-.87 1.718-1.866a1.796 1.796 0 0 0-1.781-1.738h-.064c-.063 0-.159 0-.223.033-1.304-2.188-1.845-4.569-1.654-7.143.127-1.93.764-3.603 1.877-4.986.923-1.19 2.704-1.77 3.913-1.802 3.373-.064 4.804 4.182 4.9 5.888.413.096 1.113.321 1.59.482C18.5 3.288 15.318.586 12.264.586c-2.863 0-5.504 2.091-6.554 5.18-1.463 4.118-.509 8.075 1.273 11.195-.16.226-.255.58-.223.933Z" fill="#764ABC"/></g><defs><clipPath id="nclip0_301_83"><path fill="#fff" d="M0 0h25v25H0z"/></clipPath></defs></svg><svg viewBox="0 0 25 25" fill="none" id="sass-logo" xmlns="http://www.w3.org/2000/svg"><g clip-path="url(#oclip0_301_46)"><path d="M23.087 15.23a5.119 5.119 0 0 0-2.265.532 4.872 4.872 0 0 1-.507-1.19 3.24 3.24 0 0 1-.046-.996c.077-.366.176-.727.297-1.08-.005-.046-.055-.264-.557-.271-.503-.008-.936.097-.982.231a5.653 5.653 0 0 0-.21.756 17.922 17.922 0 0 1-1.53 2.983 2.92 2.92 0 0 1-.392-1.871 8.98 8.98 0 0 1 .296-1.08c-.004-.046-.054-.264-.557-.271-.503-.008-.936.096-.982.231-.046.135-.105.453-.21.756-.104.302-1.324 3.066-1.643 3.779a25.152 25.152 0 0 1-.424.894c-.09.17-.137.264-.137.264v.005c-.069.125-.142.24-.178.24a1.57 1.57 0 0 1 .008-.786c.179-.96.616-2.45.612-2.502 0-.028.082-.287-.283-.42a.448.448 0 0 0-.516.09c-.032 0-.055.079-.055.079s.398-1.677-.758-1.677c-.45.092-.877.274-1.256.536-.38.262-.704.598-.953.988-.31.172-.972.537-1.68.931-.268.153-.548.306-.808.453-.018-.018-.037-.041-.055-.06-1.406-1.52-3.99-2.592-3.879-4.625.041-.74.292-2.686 4.963-5.048 3.844-1.922 6.904-1.39 7.433-.209.758 1.687-1.639 4.817-5.61 5.271a2.95 2.95 0 0 1-2.512-.644c-.21-.232-.242-.245-.32-.2-.127.07-.045.279 0 .4.152.277.357.522.603.719.246.196.529.34.831.424a7.533 7.533 0 0 0 4.658-.468c2.41-.945 4.285-3.571 3.735-5.77-.553-2.233-4.205-2.97-7.662-1.721a17.35 17.35 0 0 0-5.888 3.426c-1.904 1.806-2.205 3.376-2.081 4.034.446 2.335 3.616 3.854 4.885 4.981l-.173.097c-.635.32-3.055 1.603-3.66 2.96-.686 1.54.109 2.64.634 2.788a3.853 3.853 0 0 0 2.375-.181 3.919 3.919 0 0 0 1.83-1.547 4.335 4.335 0 0 0 .378-3.942.097.097 0 0 0-.018-.028l.497-.296c.324-.195.644-.375.918-.524a6.182 6.182 0 0 0-.324 1.686 3.554 3.554 0 0 0 .744 2.446.82.82 0 0 0 .603.199c.536 0 .781-.453 1.05-.99.328-.658.625-1.423.625-1.423s-.37 2.066.634 2.066c.365 0 .735-.482.9-.725v.005s.01-.013.028-.046l.059-.097v-.01c.146-.258.475-.847.963-1.824.63-1.26 1.238-2.834 1.238-2.834.058.346.139.687.242 1.023.147.406.32.802.52 1.185-.146.209-.238.325-.238.325l.005.004c-.119.158-.246.329-.388.495-.423.471-.815.97-1.173 1.492a.41.41 0 0 0 .11.543c.187.1.401.135.61.103.316-.018.627-.09.919-.213.282-.1.548-.243.79-.421a1.815 1.815 0 0 0 .758-1.58 3.226 3.226 0 0 0-.288-1.116 21.309 21.309 0 0 0 1.502-2.594c.058.346.14.688.242 1.023.121.352.27.692.446 1.02a4.394 4.394 0 0 0-1.336 1.74c-.288.843-.065 1.222.357 1.31.23.016.461-.032.667-.138.302-.101.587-.25.844-.44.271-.163.498-.39.66-.664.163-.273.256-.584.271-.902a2.994 2.994 0 0 0-.21-.927 4.72 4.72 0 0 1 2.425-.282c2.173.259 2.603 1.634 2.52 2.214a1.477 1.477 0 0 1-.688.99c-.151.098-.201.13-.188.2.018.102.09.097.219.079.327-.104.616-.305.829-.578.212-.274.337-.606.36-.953.069-1.358-1.21-2.848-3.47-2.834l-.003.001ZM6.321 20.96c-.721.797-1.726 1.098-2.16.843-.466-.271-.283-1.449.603-2.293.525-.48 1.093-.909 1.696-1.283.105-.065.26-.157.447-.272l.05-.028.11-.07c.158.538.172 1.11.04 1.654a3.177 3.177 0 0 1-.786 1.45Zm5.25-3.622c-.25.62-.776 2.21-1.095 2.12-.274-.074-.447-1.278-.055-2.468.198-.573.487-1.11.854-1.588.393-.445.826-.594.931-.413a8.3 8.3 0 0 1-.635 2.349Zm4.333 2.103c-.105.055-.206.09-.251.065-.032-.018.045-.09.045-.09s.544-.594.758-.862c.124-.158.268-.342.425-.552v.06c0 .708-.675 1.186-.976 1.38l-.001-.001Zm3.342-.774c-.077-.055-.064-.24.197-.82.181-.371.434-.702.744-.972a1.415 1.415 0 0 1-.204 1.285 1.381 1.381 0 0 1-.736.508Z" fill="#CD6799"/></g><defs><clipPath id="oclip0_301_46"><path fill="#fff" d="M0 0h25v25H0z"/></clipPath></defs></svg><svg viewBox="0 0 394 356" id="sketch-logo" xmlns="http://www.w3.org/2000/svg"><g fill="none"><path fill="#FDB300" d="M85.79 11.715 196.603 0l110.812 11.715 85.79 115.166-196.602 228.942L0 126.881z"/><path fill="#EA6C00" d="m79.634 126.881 116.969 228.942L0 126.881z"/><path fill="#EA6C00" d="M313.571 126.881 196.602 355.823l196.603-228.942z"/><path fill="#FDAD00" d="M79.634 126.881h233.938L196.603 355.823z"/><path fill="#FDD231" d="M196.603 0 85.79 11.715l-6.156 115.166z"/><path fill="#FDD231" d="m196.602 0 110.813 11.715 6.156 115.166z"/><path fill="#FDAD00" d="M393.206 126.881 307.415 11.715l6.157 115.166zM0 126.881 85.79 11.715l-6.156 115.166z"/><path fill="#FEEEB7" d="M196.603 0 79.634 126.881h233.938z"/></g></svg><svg viewBox="0 0 256 256" preserveAspectRatio="xMidYMid" id="tg-bot-logo" xmlns="http://www.w3.org/2000/svg"><path d="M128 0C57.307 0 0 57.307 0 128s57.307 128 128 128 128-57.307 128-128S198.693 0 128 0Z" fill="#40B3E0"/><path d="M190.283 73.63 167.42 188.899s-3.197 7.994-11.99 4.157l-52.758-40.448-19.184-9.272-32.294-10.872s-4.956-1.758-5.436-5.595c-.48-3.837 5.596-5.915 5.596-5.915l128.376-50.36s10.552-4.636 10.552 3.038" fill="#FFF"/><path d="M98.618 187.603s-1.54-.144-3.46-6.22c-1.917-6.075-11.67-38.049-11.67-38.049l77.538-49.24s4.477-2.718 4.317 0c0 0 .799.48-1.6 2.718-2.397 2.239-60.91 54.836-60.91 54.836" fill="#D2E5F1"/><path d="m122.901 168.115-20.867 19.026s-1.632 1.238-3.416.462l3.996-35.34" fill="#B5CFE4"/></svg><svg viewBox="0 0 25 25" id="web" xmlns="http://www.w3.org/2000/svg"><path d="M22.208 4.646v-.034h-.024a12.475 12.475 0 0 0-19.372 0H2.79v.034a12.452 12.452 0 0 0 0 15.708v.034h.024a12.476 12.476 0 0 0 19.372 0h.026v-.034a12.452 12.452 0 0 0 0-15.708h-.003Zm-9.103-.034v-3.31a5.501 5.501 0 0 1 3.083 3.31h-3.083Zm3.562 1.214c.65 1.958.999 4.004 1.035 6.067h-4.597V5.826h3.562Zm-4.776-4.524v3.31H8.81a5.5 5.5 0 0 1 3.082-3.31Zm0 4.524v6.067H7.294A20.418 20.418 0 0 1 8.33 5.826h3.562Zm-5.81 6.067H1.244a11.205 11.205 0 0 1 2.175-6.067h3.621a21.783 21.783 0 0 0-.958 6.067Zm0 1.214c.032 2.057.354 4.1.958 6.067H3.418a11.205 11.205 0 0 1-2.175-6.067h4.839Zm1.214 0h4.596v6.067H8.33a20.418 20.418 0 0 1-1.035-6.067h.001Zm4.596 7.28v3.311a5.502 5.502 0 0 1-3.082-3.31h3.082Zm1.214 3.311v-3.31h3.083a5.501 5.501 0 0 1-3.083 3.31Zm0-4.524v-6.067h4.597a20.418 20.418 0 0 1-1.035 6.067h-3.562Zm5.81-6.067h4.838a11.205 11.205 0 0 1-2.175 6.067h-3.62a21.78 21.78 0 0 0 .958-6.067h-.001Zm0-1.214a21.787 21.787 0 0 0-.958-6.067h3.621a11.205 11.205 0 0 1 2.175 6.067h-4.838Zm1.64-7.28H17.52a10.343 10.343 0 0 0-1.749-2.91 11.294 11.294 0 0 1 4.784 2.91Zm-11.33-2.91c-.739.866-1.33 1.85-1.748 2.91H4.44a11.294 11.294 0 0 1 4.784-2.91h.001ZM4.441 20.387h3.035a10.345 10.345 0 0 0 1.749 2.91 11.295 11.295 0 0 1-4.784-2.91Zm11.33 2.91c.74-.867 1.33-1.85 1.748-2.91h3.036a11.294 11.294 0 0 1-4.784 2.91Z"/></svg><svg viewBox="0 0 25 25" fill="none" id="webpack-logo" xmlns="http://www.w3.org/2000/svg"><g clip-path="url(#sclip0_301_54)"><path d="m12.465.004 11 6.25v12.501l-11 6.25-11-6.25V6.253l11-6.249Z" fill="#fff"/><path d="m21.222 17.939-8.54 4.818V19.01l5.322-2.92 3.218 1.849Zm.584-.526V7.345l-3.123 1.796v6.476l3.123 1.796Zm-18.415.526 8.54 4.814v-3.747L6.607 16.09 3.39 17.939Zm-.585-.526V7.345L5.93 9.141v6.476l-3.123 1.796Zm.364-10.72 8.76-4.936v3.625L6.318 8.457l-.045.025L3.17 6.694Zm18.268 0-8.756-4.936v3.625l5.609 3.08.045.024 3.102-1.792Z" fill="#8ED6FB"/><path d="m11.886 18.125-5.132-2.85V9.636l5.132 2.987v5.502Zm.736 0 5.132-2.846V9.636l-5.132 2.987v5.502ZM7.098 8.983l5.156-2.858 5.152 2.858-5.152 3-5.156-3Z" fill="#1C78C0"/></g><defs><clipPath id="sclip0_301_54"><path fill="#fff" d="M0 0h25v25H0z"/></clipPath></defs></svg></svg>