<svg width="25" height="25" viewBox="0 0 25 25" fill="none" xmlns="http://www.w3.org/2000/svg">
<path d="M8.33317 25C10.6332 25 12.4998 23.1334 12.4998 20.8334V16.6667H8.33317C6.03317 16.6667 4.1665 18.5334 4.1665 20.8334C4.1665 23.1334 6.03317 25 8.33317 25Z" fill="#0ACF83"/>
<path d="M4.1665 12.5C4.1665 10.2 6.03317 8.33331 8.33317 8.33331H12.4998V16.6666H8.33317C6.03317 16.6666 4.1665 14.8 4.1665 12.5Z" fill="#A259FF"/>
<path d="M4.1665 4.16667C4.1665 1.86667 6.03317 0 8.33317 0H12.4998V8.33333H8.33317C6.03317 8.33333 4.1665 6.46667 4.1665 4.16667Z" fill="#F24E1E"/>
<path d="M12.5 0H16.6667C18.9667 0 20.8333 1.86667 20.8333 4.16667C20.8333 6.46667 18.9667 8.33333 16.6667 8.33333H12.5V0Z" fill="#FF7262"/>
<path d="M20.8333 12.5C20.8333 14.8 18.9667 16.6666 16.6667 16.6666C14.3667 16.6666 12.5 14.8 12.5 12.5C12.5 10.2 14.3667 8.33331 16.6667 8.33331C18.9667 8.33331 20.8333 10.2 20.8333 12.5Z" fill="#1ABCFE"/>
</svg>
