<svg
  width="25"
  height="25"
  viewBox="0 0 25 25"
  fill="none"
  xmlns="http://www.w3.org/2000/svg"
>
  <path
    d="M23.1447 11.5817L13.5407 1.97733C13.4093 1.8455 13.2532 1.74089 13.0813 1.66952C12.9094 1.59814 12.7252 1.5614 12.539 1.5614C12.3529 1.5614 12.1686 1.59814 11.9968 1.66952C11.8249 1.74089 11.6688 1.8455 11.5374 1.97733L9.54274 3.97206L12.0724 6.5018C12.3707 6.40028 12.6915 6.3846 12.9983 6.45655C13.3051 6.52849 13.5855 6.68517 13.8075 6.90872C14.0296 7.13227 14.1844 7.41371 14.2543 7.72097C14.3242 8.02823 14.3064 8.34895 14.203 8.64658L16.6383 11.0821C17.0024 10.957 17.3983 10.9604 17.76 11.0919C18.1218 11.2233 18.4277 11.4747 18.6266 11.8042C18.8255 12.1337 18.9055 12.5215 18.8533 12.9029C18.801 13.2842 18.6197 13.6362 18.3395 13.9001C18.0592 14.1639 17.697 14.3238 17.3132 14.3531C16.9294 14.3823 16.5472 14.2792 16.2302 14.0608C15.9133 13.8424 15.6807 13.522 15.5712 13.153C15.4618 12.7839 15.4821 12.3885 15.6288 12.0327L13.3545 9.75826V15.7424C13.699 15.9131 13.9747 16.1967 14.1355 16.546C14.2963 16.8952 14.3327 17.289 14.2385 17.6618C14.1442 18.0346 13.9252 18.3638 13.6177 18.5947C13.3102 18.8256 12.9329 18.9441 12.5487 18.9306C12.1644 18.9171 11.7964 18.7724 11.5059 18.5205C11.2154 18.2686 11.02 17.9248 10.9522 17.5463C10.8843 17.1678 10.9482 16.7775 11.1332 16.4404C11.3182 16.1034 11.613 15.8398 11.9687 15.6937V9.65455C11.7629 9.57013 11.5759 9.44583 11.4184 9.28882C11.2609 9.1318 11.136 8.94517 11.0509 8.73967C10.9659 8.53418 10.9223 8.31388 10.9227 8.09147C10.9232 7.86906 10.9676 7.64894 11.0535 7.44378L8.56308 4.95174L1.97734 11.5401C1.8454 11.6715 1.7407 11.8276 1.66925 11.9996C1.59781 12.1716 1.56104 12.3559 1.56104 12.5422C1.56104 12.7284 1.59781 12.9127 1.66925 13.0847C1.7407 13.2567 1.8454 13.4128 1.97734 13.5442L11.5814 23.1455C11.7128 23.2773 11.8689 23.3819 12.0407 23.4533C12.2126 23.5247 12.3969 23.5614 12.583 23.5614C12.7691 23.5614 12.9534 23.5247 13.1253 23.4533C13.2972 23.3819 13.4533 23.2773 13.5847 23.1455L23.1447 13.5827C23.2767 13.4513 23.3814 13.2952 23.4528 13.1232C23.5243 12.9512 23.561 12.7669 23.561 12.5806C23.561 12.3944 23.5243 12.2101 23.4528 12.0381C23.3814 11.8661 23.2767 11.71 23.1447 11.5786"
    fill="#DD4C35"
  />
  <path
    d="M9.475 3.95862L11.9296 6.49519C12.219 6.3934 12.5303 6.37768 12.828 6.44981C13.1257 6.52195 13.3978 6.67905 13.6133 6.90321C13.8287 7.12737 13.979 7.40957 14.0468 7.71765C14.1146 8.02574 14.0974 8.34733 13.9969 8.64576L16.3601 11.0878C16.7133 10.9624 17.0974 10.9659 17.4485 11.0976C17.7995 11.2294 18.0963 11.4815 18.2893 11.8119C18.4824 12.1423 18.56 12.5311 18.5093 12.9135C18.4586 13.2959 18.2826 13.6488 18.0107 13.9134C17.7388 14.178 17.3874 14.3383 17.0149 14.3677C16.6425 14.397 16.2716 14.2936 15.9641 14.0746C15.6565 13.8556 15.4308 13.5344 15.3246 13.1643C15.2184 12.7943 15.2382 12.3978 15.3805 12.041L13.1737 9.76044V15.7608C13.508 15.9319 13.7754 16.2163 13.9315 16.5665C14.0876 16.9167 14.1228 17.3115 14.0314 17.6853C13.94 18.0591 13.7274 18.3893 13.429 18.6208C13.1307 18.8522 12.7646 18.9711 12.3918 18.9576C12.0189 18.944 11.6618 18.7989 11.3799 18.5463C11.098 18.2938 10.9084 17.949 10.8426 17.5695C10.7768 17.19 10.8388 16.7987 11.0183 16.4607C11.1977 16.1227 11.4839 15.8584 11.829 15.7119V9.65646C11.6293 9.57181 11.4478 9.44717 11.295 9.28973C11.1422 9.13229 11.021 8.94515 10.9384 8.7391C10.8559 8.53305 10.8136 8.31216 10.814 8.08915C10.8145 7.86615 10.8576 7.64543 10.9409 7.43971L8.52441 4.94095"
    fill="white"
  />
</svg>
