<svg width="25" height="25" viewBox="0 0 25 25" fill="none" xmlns="http://www.w3.org/2000/svg">
<path fill-rule="evenodd" clip-rule="evenodd" d="M12.4987 0C5.5963 0 0 5.73786 0 12.817C0 18.4791 3.58124 23.2826 8.54868 24.978C9.1739 25.0954 9.40172 24.6996 9.40172 24.3594C9.40172 24.0559 9.39132 23.2496 9.38508 22.1803C5.90787 22.9547 5.17446 20.462 5.17446 20.462C4.60593 18.982 3.78618 18.5879 3.78618 18.5879C2.65121 17.7922 3.872 17.8082 3.872 17.8082C5.12661 17.8994 5.78668 19.1292 5.78668 19.1292C6.90188 21.0875 8.71252 20.5217 9.42461 20.1942C9.53852 19.366 9.8605 18.8012 10.2184 18.4807C7.44284 18.1575 4.52427 17.0573 4.52427 12.1466C4.52427 10.7478 5.01165 9.60328 5.81112 8.70732C5.68265 8.38307 5.25352 7.0802 5.93336 5.31548C5.93336 5.31548 6.98302 4.97097 9.37103 6.62955C10.3682 6.3453 11.4376 6.20291 12.5003 6.19811C13.5619 6.20291 14.6313 6.3453 15.63 6.62955C18.0165 4.97097 19.064 5.31548 19.064 5.31548C19.746 7.0802 19.3168 8.38307 19.1884 8.70732C19.9894 9.60328 20.4737 10.7478 20.4737 12.1466C20.4737 17.0701 17.5504 18.1533 14.7655 18.4706C15.2149 18.8663 15.6144 19.6481 15.6144 20.8444C15.6144 22.5573 15.5993 23.9397 15.5993 24.3594C15.5993 24.7028 15.824 25.1018 16.4586 24.9764C21.4219 23.2778 25 18.4775 25 12.817C25 5.73786 19.4032 0 12.4987 0" fill="#2D3845"/>
</svg>
