<svg width="25" height="25" viewBox="0 0 25 25" fill="none" xmlns="http://www.w3.org/2000/svg">
<path d="M12.5152 18.8009C11.5788 18.8048 10.6452 18.702 9.73282 18.4944C9.46161 18.4341 9.1956 18.353 8.93718 18.2519L9.58017 19.335L9.83168 22.7193C9.83168 23.099 11.0544 23.4062 12.5618 23.4062C14.0693 23.4062 15.292 23.099 15.292 22.7193L15.4913 19.2984L16.0995 18.2488C15.8389 18.3515 15.5705 18.4337 15.2967 18.4944C14.3846 18.7019 13.4512 18.8048 12.5152 18.8009ZM16.12 7.7888C14.9395 7.93354 13.7506 8.00153 12.561 7.99232C11.3715 8.00153 10.1826 7.93354 9.00203 7.7888C8.62708 7.74396 8.25666 7.66779 7.89479 7.56111C7.80056 7.53228 7.70922 7.49495 7.62193 7.4496L8.21115 12.8005C8.23856 12.7084 8.26914 12.6164 8.30289 12.5244C8.37124 12.3363 8.45046 12.1523 8.54016 11.9731C8.62883 11.7976 8.72813 11.6276 8.83753 11.4639C8.94074 11.309 9.05491 11.1616 9.17919 11.0226C9.2918 10.8957 9.41625 10.7795 9.55091 10.6755C9.66902 10.5841 9.79844 10.5079 9.93607 10.4486C10.0578 10.3972 10.1888 10.3706 10.3212 10.3707C10.4713 10.3716 10.6184 10.4125 10.7467 10.4892C10.9027 10.5867 11.0341 10.7179 11.1311 10.8728C11.1571 10.9087 11.1749 10.9497 11.1833 10.9929C11.1904 11.0307 11.1941 11.0691 11.1944 11.1075C11.1985 11.1794 11.1766 11.2504 11.1327 11.308C11.1157 11.3305 11.0937 11.3488 11.0683 11.3615C11.0429 11.3743 11.0148 11.381 10.9864 11.3813C10.958 11.3799 10.9302 11.3721 10.9053 11.3586C10.8803 11.3451 10.8588 11.3262 10.8424 11.3033C10.786 11.2311 10.7362 11.1541 10.6937 11.0732C10.6534 10.9958 10.5952 10.9287 10.5237 10.8775C10.4642 10.8377 10.3939 10.8166 10.322 10.8167C10.1897 10.8237 10.0631 10.872 9.96059 10.9547C9.81862 11.06 9.69079 11.1826 9.58017 11.3196C9.44604 11.4831 9.32519 11.6568 9.21874 11.839C9.10456 12.0319 9.00261 12.2317 8.91345 12.4371C8.82789 12.6328 8.75731 12.8345 8.70229 13.0406C8.65322 13.2147 8.62664 13.3942 8.6232 13.5748C8.6234 13.629 8.6271 13.6832 8.63427 13.737C8.64053 13.7891 8.65438 13.84 8.6754 13.8882C8.69286 13.9308 8.7199 13.969 8.75449 13.9998C8.79137 14.0296 8.83807 14.0452 8.88577 14.0434C8.95739 14.0401 9.02713 14.0198 9.08903 13.9842C9.17289 13.9396 9.25232 13.8874 9.3263 13.8282C9.41206 13.7602 9.49392 13.6876 9.57147 13.6106C9.65373 13.5301 9.73018 13.4482 9.80083 13.365C9.87149 13.2818 9.93423 13.2023 9.98906 13.1264C10.0357 13.0636 10.077 12.9971 10.1124 12.9276L10.3371 12.2647C10.3557 12.2031 10.3933 12.1486 10.4446 12.1088C10.4844 12.0801 10.5322 12.0643 10.5814 12.0636C10.6043 12.0636 10.627 12.0673 10.6487 12.0745C10.6721 12.0821 10.6935 12.0948 10.7113 12.1117C10.7291 12.1286 10.7428 12.1492 10.7515 12.1719C10.7626 12.2003 10.7679 12.2305 10.7673 12.2608C10.7677 12.3462 10.7595 12.4313 10.7428 12.5151C10.727 12.5942 10.7064 12.6723 10.6811 12.749C10.6563 12.8244 10.6286 12.9 10.598 12.9759C10.5675 13.0518 10.5377 13.1313 10.5087 13.2145C10.4944 13.2431 10.4828 13.2728 10.4739 13.3034C10.457 13.3554 10.4364 13.418 10.4122 13.4913C10.3879 13.5646 10.3616 13.6489 10.3331 13.744L10.2461 14.0286C10.216 14.1253 10.1876 14.2202 10.1607 14.3132C10.1338 14.4063 10.1093 14.4905 10.0871 14.5659L10.0326 14.7546C10.0183 14.8053 10.0088 14.8326 10.0057 14.845C9.99586 14.8794 9.98289 14.9128 9.96692 14.9448C9.94938 14.9815 9.92847 15.0165 9.90444 15.0493C9.88206 15.079 9.85541 15.1053 9.82535 15.1273C9.80007 15.1477 9.76863 15.1592 9.73598 15.1601C9.71442 15.1619 9.69275 15.1581 9.67308 15.1493C9.65341 15.1404 9.63639 15.1266 9.62367 15.1094C9.59515 15.0515 9.58312 14.9871 9.58887 14.923V14.8832C9.58813 14.8692 9.58813 14.8552 9.58887 14.8411C9.59912 14.7835 9.61447 14.7269 9.63475 14.6719C9.65742 14.5893 9.68378 14.4957 9.71383 14.3912C9.74389 14.2867 9.77763 14.1786 9.81507 14.0668C9.85145 13.955 9.88414 13.855 9.91314 13.7666C9.82772 13.8607 9.73519 13.9543 9.63554 14.0473C9.53902 14.1376 9.4365 14.2215 9.32867 14.2984C9.22969 14.3693 9.1237 14.4302 9.01232 14.4801C8.91623 14.5247 8.81163 14.5486 8.70545 14.5503C8.60341 14.553 8.50262 14.5276 8.4144 14.477C8.39938 14.4684 8.38593 14.4583 8.37249 14.4481L8.70071 17.8417C8.78612 18.0531 10.3948 18.5716 12.5167 18.5716C14.6387 18.5716 16.2489 18.0523 16.3328 17.841L16.8073 13.8064L16.6942 13.9093C16.5722 14.0222 16.4444 14.1289 16.3114 14.229C16.2031 14.3116 16.0853 14.3813 15.9603 14.4364C15.8444 14.4856 15.7195 14.5106 15.5933 14.5097C15.4924 14.5163 15.3923 14.4888 15.3094 14.4318C15.2765 14.406 15.2502 14.3729 15.2328 14.3352C15.2153 14.2976 15.2072 14.2564 15.2089 14.215V14.1939C15.2082 14.1859 15.2082 14.1778 15.2089 14.1697C15.2202 14.1004 15.2457 14.034 15.2841 13.9748C15.332 13.8955 15.3848 13.8192 15.4422 13.7463C15.5034 13.6673 15.5685 13.5873 15.6376 13.5062C15.7067 13.4251 15.7707 13.3484 15.8298 13.2761C15.8822 13.2126 15.9311 13.1462 15.9761 13.0773C16.0083 13.0344 16.0282 12.9837 16.0338 12.9307C16.0342 12.9204 16.0322 12.9103 16.028 12.9009C16.0237 12.8916 16.0173 12.8834 16.0093 12.8769C15.9859 12.8619 15.958 12.8551 15.9302 12.8574C15.8608 12.8585 15.7927 12.8753 15.7309 12.9065C15.6579 12.9423 15.5896 12.9868 15.5277 13.0391C15.4578 13.0976 15.3925 13.1612 15.3323 13.2293C15.2689 13.3006 15.2093 13.3751 15.1536 13.4523C15.0982 13.5293 15.0476 13.6073 15.0017 13.6863C14.9558 13.7653 14.9168 13.8373 14.8847 13.9023L14.8435 13.9896C14.8256 14.027 14.8064 14.0694 14.7858 14.1167C14.7652 14.164 14.7431 14.2124 14.7194 14.2618C14.6962 14.3137 14.6748 14.3608 14.6553 14.4029L14.6031 14.5214C14.5878 14.5563 14.577 14.5802 14.5707 14.5932C14.5644 14.6062 14.5512 14.6381 14.5311 14.6891C14.5127 14.7359 14.4913 14.791 14.4671 14.8544L14.388 15.0532L14.3129 15.2505L14.2512 15.4143C14.2338 15.4611 14.2219 15.4923 14.2172 15.5102C14.2016 15.5575 14.1825 15.6036 14.1602 15.6482C14.1399 15.6893 14.1147 15.7277 14.0851 15.7628C14.058 15.7944 14.0253 15.8209 13.9886 15.8408C13.9513 15.8609 13.9093 15.8711 13.8668 15.8705C13.8156 15.8726 13.7651 15.8584 13.7229 15.8299C13.7016 15.8101 13.6855 15.7857 13.6756 15.7586C13.6657 15.7315 13.6624 15.7025 13.6659 15.6739C13.666 15.6351 13.6708 15.5963 13.6801 15.5585C13.6899 15.5189 13.7021 15.4798 13.7165 15.4416C13.7308 15.4026 13.7458 15.3636 13.7616 15.3285C13.7774 15.2934 13.7909 15.2568 13.8035 15.2225C13.8905 15.0343 13.9791 14.8458 14.0693 14.6571C14.1594 14.4684 14.2459 14.2813 14.3287 14.0957C14.3461 14.0567 14.3619 14.0177 14.3785 13.981L14.3635 13.9959C14.2639 14.0903 14.1582 14.1784 14.0471 14.2594C13.951 14.3309 13.8473 14.3918 13.7379 14.4411C13.6445 14.4843 13.5428 14.5074 13.4397 14.509C13.383 14.5107 13.3265 14.5 13.2744 14.4778C13.2325 14.4589 13.1961 14.4299 13.1684 14.3935C13.1407 14.3555 13.1213 14.3122 13.1115 14.2664C13.1115 14.2501 13.1052 14.2321 13.1028 14.215C13.0743 14.2368 13.0458 14.2579 13.0174 14.2781C12.9249 14.3434 12.8261 14.3996 12.7224 14.4458C12.6408 14.4845 12.5519 14.506 12.4614 14.509C12.4262 14.51 12.3912 14.5035 12.3587 14.4901C12.3262 14.4766 12.2971 14.4565 12.2732 14.431C12.2175 14.3561 12.1918 14.2637 12.2012 14.1713C12.2031 14.0696 12.2161 13.9685 12.2399 13.8695C12.194 13.9483 12.141 14.023 12.0818 14.0925C12.0179 14.1687 11.9457 14.2377 11.8666 14.2984C11.7843 14.3612 11.6932 14.4119 11.5961 14.4489C11.4922 14.4881 11.3816 14.5077 11.2703 14.5066C11.2185 14.5069 11.1669 14.5003 11.1169 14.4871C11.0692 14.4745 11.0251 14.4513 10.988 14.4193C10.9485 14.3838 10.9179 14.3398 10.8986 14.2906C10.874 14.2261 10.8625 14.1575 10.8646 14.0887C10.8646 14.0887 10.8646 14.0582 10.8741 14.0029C10.8881 13.9142 10.9087 13.8266 10.9358 13.7409C10.9706 13.6213 11.0233 13.4653 11.0939 13.273C11.1646 13.0807 11.2669 12.8504 11.4008 12.5821C11.4255 12.521 11.4658 12.4673 11.5179 12.4262C11.5596 12.3959 11.61 12.3795 11.6618 12.3794C11.6856 12.3796 11.7093 12.383 11.7322 12.3895C11.7565 12.3961 11.7794 12.4066 11.8002 12.4207C11.8209 12.4347 11.8382 12.4531 11.8508 12.4745C11.8644 12.4982 11.871 12.5253 11.8698 12.5525C11.87 12.5707 11.8676 12.5888 11.8627 12.6063C11.8498 12.6498 11.8323 12.6919 11.8105 12.7318C11.7841 12.7838 11.753 12.8431 11.7172 12.9096C11.6813 12.9762 11.6439 13.0482 11.6049 13.1256C11.5653 13.2026 11.5287 13.2824 11.4949 13.365C11.4612 13.4476 11.4321 13.5319 11.4079 13.6177C11.3845 13.699 11.3707 13.7827 11.3668 13.8672C11.3666 13.8997 11.375 13.9317 11.3913 13.96C11.3992 13.9736 11.4107 13.9848 11.4247 13.9922C11.4387 13.9997 11.4545 14.0031 11.4704 14.0021C11.5788 14.0009 11.6839 13.9654 11.7701 13.9007C11.8694 13.8289 11.958 13.7439 12.0335 13.6481C12.115 13.5459 12.188 13.4374 12.2518 13.3237C12.3172 13.2083 12.3715 13.1025 12.4147 13.0063C12.4458 12.9396 12.4722 12.8708 12.4938 12.8005C12.5165 12.7315 12.5429 12.6639 12.5729 12.5977C12.5964 12.5415 12.6281 12.4889 12.667 12.4418C12.6829 12.422 12.7031 12.4062 12.7261 12.3953C12.7491 12.3845 12.7744 12.3791 12.7999 12.3794C12.8264 12.3784 12.8528 12.3838 12.8768 12.3951C12.9007 12.4063 12.9216 12.4232 12.9375 12.4441C12.9719 12.4889 12.9898 12.5439 12.9881 12.6C12.9851 12.648 12.9741 12.6952 12.9557 12.7396C12.9341 12.7989 12.9077 12.8665 12.8766 12.9424C12.8455 13.0183 12.8096 13.0996 12.769 13.1864C12.7305 13.2733 12.6947 13.3611 12.6615 13.45C12.6305 13.5359 12.6041 13.6234 12.5824 13.712C12.5617 13.7899 12.5508 13.8701 12.55 13.9506C12.5482 13.9646 12.5498 13.9788 12.5545 13.9922C12.5593 14.0055 12.5671 14.0175 12.5774 14.0273C12.5876 14.0371 12.6001 14.0445 12.6137 14.0488C12.6273 14.0531 12.6418 14.0542 12.6559 14.052C12.7208 14.0481 12.7841 14.0309 12.8418 14.0013C12.9246 13.9622 13.0028 13.9143 13.0751 13.8586C13.0957 13.843 13.1162 13.8274 13.136 13.811C13.1565 13.7244 13.1829 13.6392 13.2151 13.5561C13.2715 13.4095 13.3287 13.2636 13.3867 13.1186L13.5449 12.7209L14.2765 10.9017C14.2972 10.8385 14.3383 10.7838 14.3935 10.7457C14.4378 10.7171 14.4893 10.7014 14.5422 10.7005C14.5918 10.7004 14.6398 10.7172 14.6782 10.7481C14.7002 10.7675 14.7172 10.7917 14.7279 10.8188C14.7387 10.8459 14.7428 10.8751 14.7399 10.904C14.7394 10.9405 14.7324 10.9767 14.7194 11.0109C14.7041 11.0523 14.6867 11.0929 14.6672 11.1325C14.6271 11.2209 14.5791 11.329 14.5232 11.4569C14.4673 11.5848 14.4078 11.7238 14.3445 11.8741C14.2807 12.0243 14.2156 12.1803 14.1491 12.3419L13.9538 12.8168C13.8905 12.9728 13.8309 13.1189 13.775 13.2551L13.6311 13.6145C13.6111 13.6641 13.5937 13.7146 13.5789 13.7658C13.563 13.8164 13.5545 13.8689 13.5536 13.9218C13.5524 13.9452 13.5573 13.9686 13.5678 13.9896C13.5737 13.9986 13.582 14.0058 13.5918 14.0103C13.6016 14.0149 13.6125 14.0166 13.6232 14.0154C13.6674 14.0125 13.7105 14.0006 13.7497 13.9803C13.8068 13.9533 13.8618 13.9223 13.9142 13.8875C13.9733 13.849 14.0345 13.8048 14.0977 13.7549C14.161 13.705 14.2243 13.653 14.2875 13.5989C14.3503 13.547 14.4104 13.4934 14.4679 13.4383C14.5253 13.3832 14.5765 13.3338 14.6213 13.2902C14.6319 13.2796 14.6445 13.2714 14.6585 13.266C14.6854 13.188 14.7107 13.11 14.732 13.032C14.7447 12.9983 14.7623 12.9502 14.785 12.8878C14.8082 12.8254 14.8346 12.7643 14.8641 12.7045C14.8905 12.649 14.9234 12.5966 14.9622 12.5486C14.976 12.5305 14.9937 12.5157 15.0141 12.5053C15.0345 12.4949 15.0571 12.4892 15.08 12.4885C15.1051 12.4863 15.1304 12.489 15.1545 12.4965C15.1785 12.504 15.2008 12.5161 15.22 12.5322C15.2355 12.5498 15.2473 12.5702 15.2548 12.5922C15.2623 12.6143 15.2652 12.6377 15.2635 12.6609C15.263 12.6789 15.2614 12.6968 15.2588 12.7147C15.2588 12.7389 15.2516 12.7654 15.2469 12.7927C15.2421 12.8199 15.2366 12.8457 15.2311 12.8706C15.2272 12.8889 15.222 12.9069 15.2153 12.9244C15.2748 12.8605 15.3392 12.7971 15.4082 12.7342C15.4758 12.6724 15.5477 12.6153 15.6234 12.5634C15.6944 12.5144 15.7705 12.4728 15.8503 12.4394C15.9236 12.4085 16.0024 12.3923 16.0821 12.3918C16.1356 12.3919 16.1889 12.3995 16.2403 12.4145C16.2904 12.4285 16.3378 12.4509 16.3802 12.4807C16.4214 12.5098 16.4556 12.5473 16.4807 12.5907C16.5076 12.6383 16.521 12.6922 16.5194 12.7466C16.5175 12.8322 16.4973 12.9165 16.4601 12.9938C16.4182 13.0857 16.3684 13.1738 16.3114 13.2574C16.2519 13.3458 16.1875 13.4318 16.1185 13.5155C16.0494 13.5992 15.9845 13.6754 15.9239 13.744L15.7713 13.9187C15.7428 13.946 15.7209 13.9793 15.7072 14.0161C15.7069 14.0367 15.7148 14.0567 15.7293 14.0715C15.7499 14.0875 15.776 14.0951 15.8021 14.0925C15.8455 14.0871 15.8869 14.0716 15.9231 14.0473C16.0009 14.0003 16.0754 13.9482 16.1461 13.8914C16.2421 13.817 16.3636 13.7175 16.5107 13.5927C16.612 13.5069 16.7298 13.4048 16.8635 13.2886L17.5025 7.45583C17.4152 7.50122 17.3239 7.53854 17.2297 7.56734C16.8668 7.67206 16.4956 7.74614 16.12 7.7888ZM12.561 6.40625C9.79925 6.40625 7.56104 6.71036 7.56104 7.08622C7.56104 7.46207 9.79292 7.76463 12.561 7.76463C15.3291 7.76463 17.561 7.46051 17.561 7.08466C17.561 6.7088 15.3197 6.40625 12.561 6.40625ZM14.5572 7.28506C14.5572 7.37318 14.2915 7.44102 13.9633 7.44102C13.6351 7.44102 13.3693 7.36928 13.3693 7.28506C13.3693 7.20085 13.6351 7.12911 13.9633 7.12911C14.2915 7.12911 14.5549 7.19539 14.5549 7.2835L14.5572 7.28506Z" fill="#DA4648"/>
<path d="M13.4138 7.44486C13.411 7.44917 13.4094 7.45425 13.4092 7.45949C13.4092 7.51886 13.6197 7.56683 13.8753 7.56683C14.1309 7.56683 14.3414 7.51886 14.3414 7.45949L14.9552 4.85733L17.3961 2.16003C17.4474 2.09904 17.3432 1.90957 17.1692 1.74694C16.9952 1.5843 16.8072 1.52982 16.7489 1.59162L14.1534 4.45644L13.4138 7.44486Z" fill="#DA4648"/>
</svg>
