<svg
  width="25"
  height="25"
  viewBox="0 0 25 25"
  fill="none"
  xmlns="http://www.w3.org/2000/svg"
>
  <g clip-path="url(#clip0_301_48)">
    <path d="M26.5625 1.5625H1.5625V26.5625H26.5625V1.5625Z" fill="#FFD047" />
    <path
      d="M16.6171 18.4752C16.811 18.8444 17.1123 19.1547 17.4861 19.3704C17.86 19.5861 18.2913 19.6984 18.7303 19.6943C19.6162 19.6943 20.1826 19.279 20.1826 18.7037C20.1826 18.018 19.6007 17.7726 18.6254 17.3726L18.0906 17.1578C16.5464 16.5413 15.5224 15.7695 15.5224 14.1374C15.5224 12.6341 16.7415 11.4889 18.6539 11.4889C19.2729 11.447 19.8915 11.5769 20.4323 11.8624C20.9731 12.1479 21.4124 12.5763 21.6952 13.0943L20.0233 14.0963C19.9144 13.8394 19.7248 13.6197 19.4797 13.4662C19.2345 13.3127 18.9454 13.2327 18.6506 13.2368C18.522 13.2247 18.3921 13.2379 18.2693 13.2755C18.1464 13.3131 18.0332 13.3743 17.9369 13.4551C17.8407 13.536 17.7634 13.6347 17.7101 13.7451C17.6568 13.8555 17.6286 13.9751 17.6274 14.0963C17.6274 14.6974 18.0248 14.9413 18.9424 15.3154L19.4772 15.5302C21.2945 16.261 22.3218 17.0054 22.3218 18.6794C22.3218 20.4844 20.8093 21.4734 18.7782 21.4734C17.9868 21.5207 17.1978 21.3522 16.5063 20.9884C15.8148 20.6246 15.2503 20.0809 14.8811 19.423L16.6171 18.4752ZM9.06267 18.6489C9.39834 19.2074 9.70393 19.6798 10.4386 19.6798C11.1409 19.6798 11.5846 19.4223 11.5846 18.4203V11.6032H13.7229V18.447C13.7229 20.5225 12.4226 21.4673 10.5297 21.4673C9.86059 21.5016 9.19609 21.3453 8.62354 21.0189C8.05099 20.6925 7.59718 20.2113 7.32178 19.6386L9.06267 18.6489Z"
      fill="#2D3845"
    />
  </g>
  <defs>
    <clipPath id="clip0_301_48">
      <rect width="25" height="25" fill="white" />
    </clipPath>
  </defs>
</svg>
