<svg width="25" height="25" viewBox="0 0 25 25" fill="none" xmlns="http://www.w3.org/2000/svg">
<path d="M2.47412 2.74768H22.5257V22.2524H2.47412V2.74768Z" fill="#0C0824"/>
<path d="M2.47422 2.74766H22.5258V22.2523H2.47422V2.74766ZM1.5625 23.1641H23.4375V1.83594H1.5625V23.1641ZM16.3102 10.5859C15.5898 10.5859 15.3438 10.9508 15.3438 11.2516C15.3438 11.5797 15.5078 11.8078 16.4742 12.3086C17.9055 13.0016 18.3492 13.6664 18.3492 14.6422C18.3492 16.1008 17.2375 16.8844 15.7336 16.8844C15.0882 16.9083 14.4467 16.7742 13.8648 16.4937C13.8008 16.4664 13.7922 16.4211 13.7922 16.3477V15.0062C13.7922 14.9148 13.8375 14.8875 13.9016 14.9336C14.448 15.285 15.084 15.4715 15.7336 15.4711C16.4539 15.4711 16.7547 15.1703 16.7547 14.7602C16.7547 14.432 16.5453 14.1406 15.6242 13.6664C14.3297 13.0469 13.7922 12.4164 13.7922 11.3695C13.7922 10.1938 14.7125 9.21875 16.3078 9.21875C16.8631 9.1949 17.4176 9.28175 17.9391 9.47422C17.9691 9.49371 17.9934 9.52085 18.0095 9.55284C18.0255 9.58483 18.0328 9.62052 18.0305 9.65625V10.9062C18.0305 10.9789 17.9852 11.025 17.8937 10.9977C17.4118 10.7202 16.8638 10.5785 16.3078 10.5875L16.3102 10.5859ZM8.47109 11.6703C8.68047 11.6883 8.84453 11.6883 9.20937 11.6883C10.2758 11.6883 11.2781 11.3148 11.2781 9.86563C11.2781 8.70781 10.5578 8.125 9.34609 8.125C8.98125 8.125 8.63516 8.14297 8.47109 8.15234V11.6703ZM6.84844 6.82656C6.84844 6.7625 6.97578 6.71719 7.04922 6.71719C7.63281 6.68984 8.49844 6.67188 9.40078 6.67188C11.9258 6.67188 12.9102 8.05703 12.9102 9.82578C12.9102 12.1406 11.2328 13.1344 9.17344 13.1344C8.82734 13.1344 8.70859 13.1164 8.4625 13.1164V16.6164C8.4625 16.6891 8.43516 16.7258 8.35313 16.7258H6.95859C6.88594 16.7258 6.84922 16.6984 6.84922 16.6164V6.83047L6.84844 6.82656Z" fill="#31C5F0"/>
</svg>
