<svg
  width="25"
  height="25"
  viewBox="0 0 25 25"
  fill="none"
  xmlns="http://www.w3.org/2000/svg"
>
  <g clip-path="url(#clip0_318_87)">
    <path
      d="M24.6508 11.5928C24.6459 11.5963 23.8267 12.1772 23.8267 12.8958C23.8267 14.0627 22.9328 15.7128 21.4994 15.9818C20.9807 17.2962 20.0597 17.6831 19.881 18.2202C19.7121 18.7269 19.177 19.4968 16.491 20.3302C15.0351 20.7823 13.3943 21.0977 12.5004 21.0977C11.6065 21.0977 9.96563 20.7823 8.50981 20.3302C5.82372 19.4968 5.28865 18.7269 5.11973 18.2202C4.94153 17.6843 4.01961 17.295 3.50134 15.9818C2.06797 15.7128 1.17407 14.0627 1.17407 12.8958C1.17407 12.1772 0.354866 11.5963 0.346567 11.5904C0.0302114 11.3849 -0.0825635 10.9909 0.0624328 10.6428C0.684892 9.14572 2.3794 5.56133 3.94902 4.77654C5.05724 4.22243 6.55505 4.29908 7.69109 4.4846C9.79579 3.72427 15.1455 3.70274 17.3097 4.4846C18.4457 4.29908 19.9435 4.22292 21.0513 4.77654C22.6159 5.5584 24.3229 9.16266 24.9383 10.6428C25.0833 10.9909 24.9666 11.3878 24.6508 11.5928Z"
      fill="#A07765"
    />
    <path
      d="M21.874 13.677C21.874 16.9817 20.1295 17.4732 19.8811 18.2202C19.7122 18.7269 19.1771 19.4968 16.491 20.3302C15.0352 20.7823 13.3944 21.0977 12.5005 21.0977C11.6066 21.0977 9.9657 20.7823 8.50988 20.3302C5.82379 19.4968 5.28872 18.7269 5.1198 18.2202C4.86637 17.458 3.12695 17.0096 3.12695 13.677C3.12695 10.328 5.56811 5.77301 6.98962 4.82535C8.30283 3.95298 11.3182 3.9129 12.891 3.9129C14.2363 3.9129 16.8837 4.07362 18.0103 4.82487C19.4432 5.77984 21.874 10.3405 21.874 13.677Z"
      fill="#FFDFBA"
    />
    <path
      d="M21.6826 11.8945C21.3117 13.559 20.0698 14.1378 19.8811 14.7051C19.7122 15.2119 19.1771 15.9818 16.4911 16.8151C15.0352 17.2672 13.3944 17.5826 12.5005 17.5826C11.6066 17.5826 9.96573 17.2672 8.50991 16.8151C5.82382 15.9818 5.28875 15.2119 5.11983 14.7051C4.92855 14.13 3.68891 13.5575 3.31836 11.8945C3.88409 9.08032 5.71192 5.67716 6.98965 4.82534C8.90428 3.55343 16.2276 3.63613 18.0103 4.82485C19.2938 5.68028 21.1183 9.0874 21.6826 11.8945Z"
      fill="#FFEBD2"
    />
    <path
      d="M17.1192 19.8566C17.0308 20.0553 16.8604 20.213 16.6437 20.2823C15.1664 20.7549 13.424 21.0976 12.5003 21.0976C11.5766 21.0976 9.83422 20.7549 8.35691 20.2823C8.14015 20.213 7.96977 20.0553 7.8814 19.8566C6.96207 18.0701 5.81972 14.957 7.26139 13.5154C8.33207 12.442 9.22582 11.1939 10.8336 10.9757C11.2841 10.9151 11.6929 11.2504 11.7187 11.707C11.7548 11.8291 12.0643 12.1147 12.5003 12.1147C12.9363 12.1147 13.2458 11.8291 13.2819 11.707C13.3078 11.2496 13.7173 10.9152 14.167 10.9757C15.7715 11.1935 16.6595 12.433 17.7392 13.5154C19.178 14.9542 18.0349 18.0771 17.1192 19.8566Z"
      fill="#A07765"
    />
    <path
      d="M14.844 11.7242C14.844 12.7948 13.6836 13.677 12.5006 13.677C11.301 13.677 10.1572 12.781 10.1572 11.7242C10.1572 10.9689 10.7729 10.1619 12.5006 10.1619C14.2284 10.1619 14.844 10.9689 14.844 11.7242Z"
      fill="#999999"
    />
    <path
      d="M7.22761 9.77136C6.46909 9.77136 5.85986 10.3858 5.85986 11.1383C5.85986 11.8933 6.47188 12.5053 7.22683 12.5053C7.98535 12.5053 8.59458 11.8908 8.59458 11.1383C8.59458 10.3834 7.98257 9.77136 7.22761 9.77136Z"
      fill="black"
    />
    <path
      d="M17.7722 12.5053C18.5308 12.5053 19.14 11.8908 19.14 11.1383C19.14 10.3834 18.528 9.77136 17.773 9.77136C17.0145 9.77136 16.4053 10.3858 16.4053 11.1383C16.4053 11.8933 17.0173 12.5053 17.7722 12.5053Z"
      fill="black"
    />
    <path
      d="M24.9381 10.6426C24.3145 9.14492 22.6217 5.56171 21.0511 4.77643C19.9693 4.2358 18.5027 4.28989 17.3092 4.48449C15.1604 3.70805 9.80478 3.72045 7.69028 4.48449C6.49643 4.28984 5.03001 4.23594 3.94835 4.77643C2.38381 5.55868 0.678756 9.15986 0.0614725 10.6426C-0.0778118 10.9769 0.0202194 11.3794 0.349219 11.593C0.353613 11.596 1.17306 12.1772 1.17306 12.8958C1.17306 14.0628 2.06716 15.7126 3.50013 15.9816C4.01865 17.2943 4.94018 17.6845 5.11882 18.2202C5.28769 18.7268 5.82281 19.4967 8.50875 20.3303C11.0919 21.132 12.5963 21.0977 12.4998 21.0977C13.5997 21.0977 15.4011 20.6685 16.4909 20.3303C19.1768 19.4967 19.7119 18.7268 19.8808 18.2202C20.0594 17.6845 20.9809 17.2945 21.4995 15.9816C22.9324 15.7127 23.8266 14.0628 23.8266 12.8958C23.8266 12.1771 24.646 11.596 24.6504 11.593C24.9802 11.3788 25.0768 10.9757 24.9381 10.6426ZM2.73609 12.8958C2.73609 11.9182 2.17212 11.1657 1.73088 10.7266C2.1896 9.70958 3.65406 6.67056 4.64755 6.17386C4.96479 6.01535 5.4094 5.92791 5.94237 5.91263C4.5091 7.85441 3.05533 11.2967 3.13007 13.9454C2.88914 13.6085 2.73609 13.1793 2.73609 12.8958ZM13.2113 11.8152C12.8529 12.2118 12.148 12.2134 11.7883 11.8152C12.1523 11.6933 12.8468 11.6932 13.2113 11.8152ZM9.14298 18.89C8.40696 17.3846 7.77132 15.2143 8.36576 14.6198C9.18818 13.7975 9.77618 13.0284 10.4914 12.6902C10.7885 13.0995 11.2359 13.4007 11.7182 13.5546V14.5585C10.7702 14.8092 9.96853 15.5448 9.50488 16.3639C9.41984 16.489 9.36945 16.6394 9.36945 16.802C9.36945 17.6216 10.4827 17.8884 10.8499 17.1484C10.8559 17.1514 10.8553 17.1496 10.8524 17.1552C10.8526 17.1548 10.8534 17.1532 10.8549 17.1505C10.8602 17.1532 11.4349 16.0206 12.4998 16.0203C13.548 16.0206 14.1405 17.1438 14.1463 17.1552L14.1441 17.1507L14.1446 17.1505C14.146 17.1532 14.1469 17.1548 14.1471 17.1552C14.1442 17.1495 14.1436 17.1514 14.1495 17.1484C14.5168 17.8883 15.63 17.6217 15.63 16.802C15.63 16.6394 15.5796 16.489 15.4946 16.3639C15.0257 15.5355 14.2241 14.8078 13.2812 14.5585V13.5546C13.7633 13.4007 14.2109 13.0996 14.5081 12.6902C15.2232 13.0284 15.811 13.7972 16.6338 14.6198C17.2282 15.2143 16.5926 17.3846 15.8566 18.89C14.4417 19.3136 13.0994 19.5353 12.4998 19.5354C11.9002 19.5353 10.5578 19.3137 9.14298 18.89ZM21.8695 13.9455C21.9449 11.275 20.4685 7.82467 19.0572 5.91268C19.5902 5.92796 20.0348 6.01539 20.352 6.17391C21.3455 6.67061 22.81 9.70963 23.2687 10.7266C22.8275 11.1657 22.2635 11.9182 22.2635 12.8959C22.2634 13.1793 22.1103 13.6085 21.8695 13.9455ZM16.8603 5.98342C16.898 6.00319 16.937 6.02047 16.9777 6.03395C17.9431 6.48749 20.3106 10.6874 20.3106 13.677C20.3106 16.5329 18.9312 16.1659 18.4036 17.7094C18.3594 17.7778 18.2046 17.9157 17.8777 18.0971C18.4065 16.6212 18.8476 14.6237 17.7393 13.5153C16.7911 12.5669 15.9859 11.4761 14.6827 11.0874C14.1078 10.0333 12.3349 10.162 12.4998 10.162C11.6735 10.162 10.7144 10.3585 10.3168 11.0874C9.01394 11.476 8.20846 12.567 7.26027 13.5153C6.152 14.6235 6.5928 16.6207 7.12182 18.0971C6.79492 17.9157 6.64015 17.7778 6.59592 17.7094C6.06891 16.1675 4.68886 16.531 4.68886 13.677C4.68886 10.6677 7.06826 6.48192 8.02172 6.03395C8.06239 6.02052 8.10144 6.00319 8.13913 5.98342C9.86747 5.29764 15.1533 5.30608 16.8603 5.98342Z"
      fill="black"
    />
  </g>
  <defs>
    <clipPath id="clip0_318_87">
      <rect width="25" height="25" fill="white" />
    </clipPath>
  </defs>
</svg>
