<svg width="25" height="25" viewBox="0 0 25 25" fill="none" xmlns="http://www.w3.org/2000/svg">
<path d="M20.555 8.4978C20.2957 8.40951 20.0269 8.32597 19.7502 8.24696C19.7957 8.06338 19.8375 7.88218 19.8746 7.70406C20.4838 4.77921 20.0855 2.42294 18.7253 1.64715C17.4211 0.903277 15.2882 1.67889 13.1341 3.5331C12.9269 3.7114 12.7192 3.90017 12.5116 4.09801C12.3732 3.96712 12.2351 3.84062 12.0973 3.71963C9.83972 1.73698 7.57682 0.901472 6.21803 1.6795C4.91508 2.42553 4.52922 4.64066 5.07759 7.41255C5.13054 7.68029 5.19244 7.9537 5.26244 8.23169C4.94218 8.32161 4.63299 8.41747 4.33716 8.51945C1.69036 9.43217 0 10.8626 0 12.3464C0 13.8788 1.81461 15.4158 4.57145 16.3478C4.78901 16.4214 5.01476 16.4909 5.2474 16.5569C5.17188 16.8576 5.1062 17.1522 5.05107 17.4396C4.5282 20.1634 4.93653 22.3262 6.236 23.0675C7.57825 23.8331 9.83091 23.0461 12.0244 21.1497C12.1978 20.9998 12.3718 20.8408 12.5461 20.6741C12.772 20.8893 12.9976 21.093 13.222 21.284C15.3466 23.0924 17.4451 23.8226 18.7434 23.0792C20.0843 22.3115 20.5201 19.9881 19.9543 17.1614C19.9111 16.9455 19.8608 16.7249 19.8044 16.5005C19.9625 16.4542 20.1179 16.4064 20.2693 16.3568C23.1353 15.4176 25 13.8992 25 12.3464C25 10.8572 23.2551 9.41716 20.555 8.4978ZM19.9334 15.3541C19.7967 15.3989 19.6564 15.4422 19.5135 15.4841C19.1971 14.4934 18.7701 13.4399 18.2475 12.3515C18.7462 11.289 19.1567 10.249 19.4642 9.26474C19.72 9.33793 19.9682 9.41513 20.2074 9.4966C22.5208 10.2843 23.932 11.449 23.932 12.3464C23.932 13.3022 22.408 14.5431 19.9334 15.3541ZM18.9066 17.3665C19.1568 18.6165 19.1925 19.7466 19.0268 20.63C18.8779 21.4238 18.5785 21.9531 18.2082 22.1651C17.4204 22.6161 15.7355 22.0298 13.9185 20.4833C13.7102 20.306 13.5004 20.1167 13.2899 19.9163C13.9943 19.1543 14.6983 18.2684 15.3854 17.2846C16.594 17.1785 17.7358 17.0051 18.7713 16.7684C18.8223 16.9718 18.8676 17.1714 18.9066 17.3665ZM8.52306 22.0871C7.75331 22.356 7.14024 22.3637 6.76964 22.1523C5.98107 21.7025 5.65324 19.966 6.10041 17.6366C6.15163 17.3698 6.2126 17.0958 6.28286 16.8157C7.30698 17.0397 8.44043 17.2009 9.65189 17.298C10.3436 18.2607 11.068 19.1456 11.798 19.9204C11.6385 20.0727 11.4796 20.2177 11.3216 20.3543C10.3517 21.1929 9.37968 21.7879 8.52306 22.0871ZM4.91686 15.3483C3.69783 14.9362 2.69112 14.4006 2.00106 13.8161C1.381 13.2909 1.06795 12.7695 1.06795 12.3464C1.06795 11.446 2.42514 10.2975 4.68871 9.51694C4.96336 9.42222 5.25087 9.33296 5.54924 9.24911C5.86207 10.2556 6.27245 11.3079 6.76769 12.3721C6.26604 13.452 5.84984 14.5211 5.53393 15.5394C5.32123 15.4789 5.11515 15.4153 4.91686 15.3483ZM6.12569 7.20969C5.65586 4.8348 5.96789 3.04327 6.75309 2.59371C7.58946 2.1148 9.43891 2.79763 11.3882 4.50954C11.5128 4.61896 11.6379 4.73348 11.7633 4.85197C11.0369 5.62339 10.3192 6.50165 9.6336 7.45868C8.45783 7.56647 7.33234 7.73962 6.29755 7.97148C6.23249 7.71264 6.17486 7.45833 6.12569 7.20969ZM16.9096 9.84343C16.6622 9.42081 16.4082 9.00818 16.1493 8.60682C16.947 8.70656 17.7112 8.83895 18.4289 9.00096C18.2134 9.68397 17.9449 10.3981 17.6288 11.1302C17.402 10.7043 17.1621 10.275 16.9096 9.84343ZM12.5119 5.60689C13.0045 6.13475 13.4979 6.72409 13.9831 7.36352C13.4941 7.34068 12.9991 7.32879 12.5 7.32879C12.0056 7.32879 11.5142 7.34041 11.0283 7.36286C11.514 6.72937 12.0116 6.14082 12.5119 5.60689ZM8.08612 9.85074C7.83902 10.2745 7.60361 10.7016 7.3804 11.1294C7.06939 10.3999 6.80333 9.68247 6.58599 8.98978C7.29928 8.83191 8.05991 8.70281 8.8525 8.60497C8.58995 9.01003 8.3339 9.4257 8.08612 9.85065V9.85074ZM8.87532 16.1631C8.05644 16.0727 7.28437 15.9503 6.57127 15.7968C6.79207 15.0917 7.06401 14.359 7.3816 13.6138C7.60539 14.0413 7.84173 14.4685 8.09035 14.8932H8.09039C8.34364 15.3259 8.60601 15.7498 8.87532 16.1631ZM12.5415 19.1603C12.0353 18.6201 11.5304 18.0226 11.0373 17.3799C11.516 17.3984 12.004 17.4079 12.5 17.4079C13.0096 17.4079 13.5133 17.3966 14.0091 17.3747C13.5223 18.0291 13.0307 18.6275 12.5415 19.1603ZM17.639 13.5758C17.9731 14.3291 18.2548 15.058 18.4784 15.751C17.7536 15.9145 16.971 16.0463 16.1464 16.1442C16.4059 15.7374 16.6621 15.3177 16.9138 14.8859C17.1685 14.4492 17.4103 14.0117 17.639 13.5758ZM15.9887 14.3582C15.5979 15.0284 15.1967 15.6682 14.7894 16.2721C14.0476 16.3246 13.2811 16.3516 12.5 16.3516C11.722 16.3516 10.9653 16.3277 10.2365 16.2809C9.8128 15.6691 9.40287 15.0274 9.01456 14.364H9.01465C8.62737 13.7024 8.27093 13.0352 7.94795 12.3717C8.27084 11.7067 8.62635 11.0388 9.0114 10.3783L9.01132 10.3785C9.39739 9.71627 9.80372 9.07772 10.2235 8.46972C10.967 8.41413 11.7294 8.38512 12.5 8.38512H12.5C13.274 8.38512 14.0374 8.41435 14.7807 8.47042C15.1941 9.07398 15.5976 9.71046 15.9852 10.3727C16.3772 11.0425 16.7373 11.706 17.063 12.3567C16.7383 13.0186 16.379 13.6888 15.9887 14.3582ZM18.1919 2.56229C19.029 3.03979 19.3546 4.96557 18.8286 7.49085C18.7951 7.65199 18.7573 7.81611 18.7162 7.98244C17.679 7.74574 16.5528 7.56959 15.3736 7.46018C14.6866 6.49262 13.9748 5.61301 13.2602 4.85148C13.4523 4.66869 13.6442 4.4944 13.8352 4.32992C15.6809 2.74125 17.4059 2.11401 18.1919 2.56229ZM12.5 10.1383C13.7329 10.1383 14.7324 11.1269 14.7324 12.3464C14.7324 13.5658 13.7329 14.5544 12.5 14.5544C11.2671 14.5544 10.2676 13.5658 10.2676 12.3464C10.2676 11.1269 11.2671 10.1383 12.5 10.1383Z" fill="#00D8FF"/>
</svg>
