<svg width="25" height="25" viewBox="0 0 25 25" fill="none" xmlns="http://www.w3.org/2000/svg">
<g clip-path="url(#clip0_301_83)">
<path d="M17.3224 17.3473C18.245 17.2508 18.9449 16.4465 18.913 15.4814C18.8812 14.5162 18.0859 13.7441 17.1315 13.7441H17.0679C16.0816 13.7763 15.3181 14.6127 15.3499 15.6101C15.3817 16.0926 15.5726 16.5109 15.8589 16.8004C14.7773 18.9559 13.123 20.5323 10.6415 21.8514C8.95539 22.7522 7.20565 23.0739 5.4559 22.8487C4.02429 22.6556 2.91082 22.0122 2.21092 20.9506C1.19289 19.3741 1.09745 17.669 1.95641 15.964C2.56087 14.7414 3.51528 13.8406 4.11974 13.3902C3.99248 12.972 3.8016 12.2642 3.70616 11.7495C-0.906806 15.1275 -0.429603 19.6959 0.970193 21.8514C2.02004 23.4599 4.15155 24.4573 6.50575 24.4573C7.14202 24.4573 7.77829 24.3929 8.41456 24.232C12.4867 23.4278 15.5726 20.9827 17.3224 17.3473ZM22.9215 13.3581C20.5037 10.4948 16.9406 8.91838 12.8685 8.91838H12.3594C12.0731 8.33929 11.4687 7.95323 10.8006 7.95323H10.737C9.75073 7.9854 8.98721 8.82186 9.01902 9.81918C9.05084 10.7843 9.84617 11.5564 10.8006 11.5564H10.8642C11.5641 11.5243 12.1686 11.0739 12.4231 10.4626H12.9957C15.4135 10.4626 17.7041 11.1704 19.772 12.5538C21.3627 13.6154 22.508 14.9988 23.1442 16.6717C23.6851 18.0229 23.6533 19.342 23.0806 20.468C22.1898 22.1731 20.6946 23.106 18.7222 23.106C17.4496 23.106 16.2407 22.72 15.6044 22.4304C15.2545 22.7522 14.6182 23.2669 14.1728 23.5886C15.5408 24.232 16.9406 24.5859 18.2768 24.5859C21.3309 24.5859 23.5896 22.8808 24.4486 21.1758C25.3712 19.3098 25.3076 16.0926 22.9215 13.3581ZM6.76026 17.8942C6.79207 18.8594 7.58741 19.6315 8.54182 19.6315H8.60545C9.59167 19.5993 10.3552 18.7629 10.3234 17.7656C10.2916 16.8004 9.49623 16.0283 8.54182 16.0283H8.47819C8.41456 16.0283 8.31912 16.0283 8.2555 16.0605C6.95114 13.8728 6.41031 11.4921 6.60119 8.91838C6.72845 6.98808 7.36472 5.31516 8.47819 3.93178C9.40078 2.74143 11.1823 2.16235 12.3913 2.13017C15.7635 2.06583 17.1951 6.31248 17.2905 8.01757C17.7041 8.11409 18.404 8.33929 18.8812 8.50015C18.4995 3.28835 15.3181 0.585938 12.264 0.585938C9.40078 0.585938 6.76026 2.67709 5.71041 5.76556C4.24699 9.88352 5.2014 13.8406 6.98295 16.9613C6.82389 17.1865 6.72845 17.5404 6.76026 17.8942Z" fill="#764ABC"/>
</g>
<defs>
<clipPath id="clip0_301_83">
<rect width="25" height="25" fill="white"/>
</clipPath>
</defs>
</svg>
