<svg
  width="25"
  height="25"
  viewBox="0 0 25 25"
  fill="none"
  xmlns="http://www.w3.org/2000/svg"
>
  <g clip-path="url(#clip0_301_46)">
    <path
      d="M23.087 15.2294C22.302 15.2305 21.5275 15.4126 20.8221 15.7619C20.6012 15.3901 20.4306 14.9899 20.315 14.5719C20.2485 14.2443 20.2331 13.9082 20.2694 13.5758C20.3457 13.21 20.4447 12.8494 20.5658 12.4962C20.5614 12.4501 20.5114 12.2318 20.0087 12.2246C19.5061 12.2173 19.0731 12.3215 19.0267 12.4564C18.9394 12.7029 18.8693 12.9553 18.8169 13.2117C18.4009 14.2527 17.8889 15.2515 17.2876 16.1948C16.9507 15.6346 16.8122 14.9746 16.8948 14.3238C16.9711 13.958 17.0701 13.5974 17.1912 13.2443C17.1867 13.1981 17.1367 12.9799 16.6341 12.9726C16.1315 12.9654 15.6985 13.0695 15.652 13.2044C15.6056 13.3394 15.5467 13.6573 15.4422 13.9597C15.3378 14.2622 14.1183 17.0262 13.7987 17.7389C13.6344 18.1012 13.4924 18.3964 13.3925 18.5956C13.3877 18.6086 13.3817 18.621 13.3746 18.6328C13.2853 18.8039 13.238 18.8972 13.238 18.8972V18.9017C13.1693 19.0267 13.0961 19.1426 13.0595 19.1426C12.9956 18.8839 12.9987 18.6128 13.0684 18.3556C13.2469 17.3966 13.6844 15.9059 13.6799 15.8543C13.6799 15.8262 13.7621 15.5672 13.3969 15.4332C13.3122 15.3923 13.2171 15.3791 13.1247 15.3953C13.0323 15.4115 12.9471 15.4564 12.8809 15.5238C12.8488 15.5238 12.8264 15.6025 12.8264 15.6025C12.8264 15.6025 13.2237 13.9262 12.0685 13.9262C11.6186 14.018 11.1914 14.2002 10.8119 14.4619C10.4325 14.7237 10.1084 15.0597 9.85889 15.4504C9.54821 15.6216 8.88667 15.9874 8.17871 16.3814C7.91088 16.5344 7.63055 16.6875 7.37075 16.8342C7.3529 16.8161 7.33415 16.7925 7.31629 16.7744C5.91019 15.2548 3.32563 14.1825 3.43722 12.1494C3.47829 11.4086 3.72916 9.46331 8.40011 7.10054C12.2444 5.1788 15.3039 5.71131 15.8333 6.89224C16.5912 8.57852 14.1942 11.7093 10.2222 12.163C9.78283 12.2534 9.329 12.2425 8.89431 12.131C8.45962 12.0196 8.05518 11.8104 7.7109 11.5191C7.5011 11.2872 7.46896 11.2737 7.39129 11.3198C7.26362 11.3896 7.34575 11.5979 7.39129 11.7183C7.54281 11.9965 7.74776 12.241 7.99402 12.4375C8.24028 12.6339 8.52286 12.7783 8.82507 12.8621C10.3876 13.2046 12.0167 13.0409 13.4826 12.3939C15.8931 11.4493 17.7679 8.82304 17.218 6.62327C16.6653 4.39091 13.013 3.65464 9.55624 4.90259C7.39106 5.64164 5.39044 6.80576 3.66845 8.32856C1.76418 10.1353 1.46332 11.7047 1.58652 12.3631C2.0329 14.6978 5.20312 16.2166 6.47174 17.3441C6.40746 17.3812 6.34853 17.4138 6.29854 17.441C5.66378 17.7606 3.24439 19.0439 2.6382 20.4005C1.95345 21.9401 2.74801 23.0404 3.27296 23.189C4.06395 23.381 4.89433 23.3178 5.64817 23.008C6.40201 22.6982 7.04168 22.1574 7.47788 21.461C7.84933 20.8834 8.07765 20.2233 8.1434 19.5369C8.20916 18.8505 8.11039 18.1582 7.85552 17.5188C7.85122 17.5085 7.84518 17.499 7.83767 17.4908L8.33494 17.1946C8.65901 16.9999 8.97862 16.8197 9.2527 16.6712C9.06685 17.215 8.95774 17.7827 8.92863 18.3574C8.86553 19.2384 9.1313 20.1112 9.67319 20.8026C9.75565 20.8746 9.85137 20.9293 9.95482 20.9635C10.0583 20.9977 10.1674 21.0108 10.2758 21.0019C10.8115 21.0019 11.057 20.5491 11.3257 20.0111C11.6542 19.3536 11.9506 18.5893 11.9506 18.5893C11.9506 18.5893 11.581 20.655 12.5854 20.655C12.9505 20.655 13.3201 20.1732 13.4853 19.9305V19.935C13.4853 19.935 13.4942 19.9215 13.513 19.8889L13.5719 19.792V19.7829C13.7183 19.5239 14.0469 18.9352 14.5352 17.9581C15.1655 16.6983 15.7726 15.1235 15.7726 15.1235C15.8311 15.4696 15.9119 15.8114 16.0145 16.1468C16.1616 16.5534 16.3354 16.9494 16.535 17.3323C16.3886 17.5406 16.2975 17.6565 16.2975 17.6565L16.302 17.661C16.1832 17.8186 16.0556 17.9898 15.9136 18.1564C15.4913 18.6274 15.0994 19.1256 14.7405 19.648C14.6872 19.7357 14.6689 19.8408 14.6893 19.9417C14.7097 20.0427 14.7673 20.132 14.8503 20.1913C15.0383 20.2905 15.2525 20.3264 15.4619 20.2937C15.7774 20.2756 16.0877 20.2037 16.3797 20.0809C16.6618 19.9801 16.9279 19.8383 17.1698 19.6597C17.419 19.4845 17.6197 19.2472 17.7524 18.9706C17.8852 18.694 17.9455 18.3874 17.9277 18.0803C17.8996 17.6935 17.8022 17.3151 17.6402 16.9637C17.6858 16.8985 17.7295 16.8342 17.7724 16.769C18.2799 16.0005 18.7374 15.1991 19.1419 14.37C19.2004 14.7161 19.2812 15.0579 19.3838 15.3933C19.5051 15.7447 19.6544 16.0854 19.8302 16.4122C19.2463 16.8679 18.7863 17.4669 18.4937 18.1528C18.2063 18.9959 18.4294 19.3754 18.8508 19.4632C19.0814 19.4793 19.312 19.4314 19.5177 19.3247C19.8203 19.2238 20.1053 19.0753 20.3623 18.8845C20.6333 18.7223 20.8603 18.4942 21.0228 18.2209C21.1854 17.9476 21.2784 17.6375 21.2934 17.3187C21.2732 17.0004 21.2023 16.6876 21.0836 16.3922C21.8542 16.0869 22.6897 15.9895 23.5084 16.1097C25.6814 16.3687 26.1108 17.7443 26.0287 18.3239C25.9901 18.5294 25.9087 18.7241 25.7898 18.895C25.671 19.0659 25.5174 19.209 25.3395 19.3147C25.1886 19.4116 25.1386 19.4442 25.152 19.5139C25.1698 19.6163 25.2412 19.6108 25.3707 19.5927C25.6982 19.4895 25.9872 19.2879 26.1995 19.0147C26.4118 18.7415 26.5374 18.4094 26.5599 18.0622C26.6286 16.7038 25.3502 15.214 23.0897 15.2276L23.087 15.2294ZM6.32086 20.9602C5.5995 21.7572 4.59514 22.0578 4.16126 21.8034C3.69523 21.5317 3.87825 20.3544 4.76388 19.5103C5.28922 19.0306 5.85704 18.601 6.46013 18.227C6.56548 18.1618 6.72082 18.0695 6.90651 17.9554L6.95651 17.9273L7.06632 17.8575C7.22454 18.3953 7.23889 18.9661 7.10789 19.5113C6.97688 20.0565 6.70525 20.5566 6.32086 20.9602ZM11.5712 17.3377C11.3203 17.9581 10.7954 19.5474 10.4758 19.4587C10.2017 19.3844 10.0294 18.1799 10.4213 16.99C10.6192 16.4171 10.9075 15.8806 11.2748 15.4015C11.6676 14.9568 12.1015 14.8083 12.206 14.9894C12.1107 15.7999 11.8967 16.5913 11.5712 17.3377ZM15.9038 19.4406C15.7985 19.4958 15.6985 19.5311 15.6529 19.5058C15.6208 19.4877 15.6985 19.4152 15.6985 19.4152C15.6985 19.4152 16.2422 18.822 16.4564 18.554C16.5796 18.3964 16.7243 18.2116 16.8814 18.0024V18.0622C16.8814 18.7704 16.2056 19.2477 15.9047 19.4424L15.9038 19.4406ZM19.2463 18.6672C19.1687 18.6119 19.182 18.4263 19.4427 17.8476C19.624 17.4759 19.8772 17.1451 20.1873 16.8749C20.2348 17.012 20.2596 17.1562 20.2605 17.3015C20.264 17.6108 20.1665 17.9126 19.9832 18.1598C19.7999 18.407 19.5411 18.5857 19.2472 18.6681L19.2463 18.6672Z"
      fill="#CD6799"
    />
  </g>
  <defs>
    <clipPath id="clip0_301_46">
      <rect width="25" height="25" fill="white" />
    </clipPath>
  </defs>
</svg>
