<svg
  width="25"
  height="25"
  viewBox="0 0 25 25"
  xmlns="http://www.w3.org/2000/svg"
>
  <path
    d="M22.2084 4.64612V4.61214H22.1841C21.0144 3.17141 19.5379 2.00978 17.8623 1.2119C16.1866 0.414024 14.3541 0 12.4982 0C10.6423 0 8.80972 0.414024 7.1341 1.2119C5.45848 2.00978 3.98199 3.17141 2.81223 4.61214H2.78917V4.64612C0.984914 6.86606 0 9.63942 0 12.5C0 15.3606 0.984914 18.1339 2.78917 20.3539V20.3879H2.81345C3.98321 21.8286 5.4597 22.9902 7.13532 23.7881C8.81094 24.586 10.6435 25 12.4994 25C14.3553 25 16.1878 24.586 17.8635 23.7881C19.5391 22.9902 21.0156 21.8286 22.1853 20.3879H22.2108V20.3539C24.0151 18.1339 25 15.3606 25 12.5C25 9.63942 24.0151 6.86606 22.2108 4.64612H22.2084ZM13.105 4.61214V1.30167C13.8241 1.60346 14.4709 2.05469 15.0023 2.62543C15.5338 3.19618 15.9378 3.87339 16.1876 4.61214H13.105ZM16.667 5.82566C17.3167 7.78427 17.6657 9.83003 17.7022 11.8932H13.105V5.82566H16.667ZM11.8914 1.30167V4.61214H8.80876C9.05854 3.87339 9.46256 3.19618 9.99402 2.62543C10.5255 2.05469 11.1722 1.60346 11.8914 1.30167V1.30167ZM11.8914 5.82566V11.8932H7.29415C7.33064 9.83003 7.67967 7.78427 8.32937 5.82566H11.8914ZM6.08174 11.8932H1.24301C1.35802 9.70139 2.11425 7.59157 3.41783 5.82566H7.03929C6.4347 7.79275 6.1119 9.83559 6.08053 11.8932H6.08174ZM6.08174 13.1068C6.11272 15.1644 6.43511 17.2072 7.03929 19.1743H3.41783C2.11425 17.4084 1.35802 15.2986 1.24301 13.1068H6.08174ZM7.29537 13.1068H11.8914V19.1743H8.32937C7.67967 17.2157 7.33064 15.17 7.29415 13.1068H7.29537ZM11.8914 20.3879V23.6983C11.1722 23.3965 10.5255 22.9453 9.99402 22.3746C9.46256 21.8038 9.05854 21.1266 8.80876 20.3879H11.8914ZM13.105 23.6983V20.3879H16.1876C15.9378 21.1266 15.5338 21.8038 15.0023 22.3746C14.4709 22.9453 13.8241 23.3965 13.105 23.6983V23.6983ZM13.105 19.1743V13.1068H17.7022C17.6657 15.17 17.3167 17.2157 16.667 19.1743H13.105ZM18.9146 13.1068H23.7533C23.6383 15.2986 22.8821 17.4084 21.5785 19.1743H17.9571C18.5617 17.2072 18.8845 15.1644 18.9158 13.1068H18.9146ZM18.9146 11.8932C18.8836 9.83564 18.5612 7.79281 17.9571 5.82566H21.5785C22.8821 7.59157 23.6383 9.70139 23.7533 11.8932H18.9146ZM20.5554 4.61214H17.5202C17.1015 3.55245 16.5106 2.56921 15.7713 1.70213C17.5851 2.25518 19.2303 3.25595 20.5554 4.61214ZM9.22503 1.70213C8.48621 2.5693 7.89572 3.55253 7.47741 4.61214H4.4397C5.76482 3.25595 7.41009 2.25518 9.22382 1.70213H9.22503ZM4.44092 20.3879H7.4762C7.89488 21.4475 8.48578 22.4308 9.22503 23.2979C7.4113 22.7448 5.76603 21.7441 4.44092 20.3879V20.3879ZM15.7713 23.2979C16.5101 22.4307 17.1006 21.4475 17.5189 20.3879H20.5554C19.2303 21.7441 17.5851 22.7448 15.7713 23.2979V23.2979Z"
  />
</svg>
