<svg
  width="25"
  height="25"
  viewBox="0 0 25 25"
  fill="none"
  xmlns="http://www.w3.org/2000/svg"
>
  <g clip-path="url(#clip0_301_54)">
    <path
      d="M12.4653 0.00415039L23.4653 6.25311V18.7552L12.4653 25.0042L1.46533 18.7552V6.25311L12.4653 0.00415039Z"
      fill="white"
    />
    <path
      d="M21.2216 17.9389L12.6822 22.7572V19.0101L18.0045 16.0898L21.2216 17.9389ZM21.8062 17.4135V7.34525L18.6831 9.14142V15.6174L21.8062 17.4135ZM3.3907 17.9389L11.9301 22.7531V19.006L6.60779 16.0898L3.3907 17.9389ZM2.80615 17.4135V7.34525L5.92922 9.14142V15.6174L2.80615 17.4135ZM3.16996 6.69359L11.9301 1.7572V5.38211L6.31755 8.45716L6.27259 8.4816L3.16996 6.69359ZM21.4383 6.69359L12.6822 1.7572V5.38211L18.2907 8.46124L18.3356 8.48567L21.4383 6.69359Z"
      fill="#8ED6FB"
    />
    <path
      d="M11.8862 18.1252L6.75391 15.2753V9.6361L11.8862 12.623V18.1252ZM12.6216 18.1252L17.7539 15.2794V9.6361L12.6216 12.623V18.1252ZM7.09766 8.98309L12.2539 6.12518L17.4062 8.98309L12.2539 11.9821L7.09766 8.98309Z"
      fill="#1C78C0"
    />
  </g>
  <defs>
    <clipPath id="clip0_301_54">
      <rect width="25" height="25" fill="white" />
    </clipPath>
  </defs>
</svg>
